<?xml version="1.0" encoding="UTF-8" standalone="no"?><svg xmlns="http://www.w3.org/2000/svg" xmlns:xlink="http://www.w3.org/1999/xlink" contentScriptType="application/ecmascript" contentStyleType="text/css" height="177px" preserveAspectRatio="none" style="width:76px;height:177px;" version="1.1" viewBox="0 0 76 177" width="76px" zoomAndPan="magnify"><defs><filter height="300%" id="f3r4ckx9v51lu" width="300%" x="-1" y="-1"><feGaussianBlur result="blurOut" stdDeviation="2.0"/><feColorMatrix in="blurOut" result="blurOut2" type="matrix" values="0 0 0 0 0 0 0 0 0 0 0 0 0 0 0 0 0 0 .4 0"/><feOffset dx="4.0" dy="4.0" in="blurOut2" result="blurOut3"/><feBlend in="SourceGraphic" in2="blurOut3" mode="normal"/></filter></defs><g><!--MD5=[d10371c429a20e8e62c953c705282488]
class Foo--><rect fill="#FEFECE" filter="url(#f3r4ckx9v51lu)" height="48" id="Foo" style="stroke:#A80036;stroke-width:1.5;" width="55" x="7" y="7"/><ellipse cx="22" cy="23" fill="#ADD1B2" rx="11" ry="11" style="stroke:#A80036;stroke-width:1.0;"/><path d="M24.9688,28.6406 Q24.3906,28.9375 23.75,29.0781 Q23.1094,29.2344 22.4063,29.2344 Q19.9063,29.2344 18.5781,27.5938 Q17.2656,25.9375 17.2656,22.8125 Q17.2656,19.6875 18.5781,18.0313 Q19.9063,16.375 22.4063,16.375 Q23.1094,16.375 23.75,16.5313 Q24.4063,16.6875 24.9688,16.9844 L24.9688,19.7031 Q24.3438,19.125 23.75,18.8594 Q23.1563,18.5781 22.5313,18.5781 Q21.1875,18.5781 20.5,19.6563 Q19.8125,20.7188 19.8125,22.8125 Q19.8125,24.9063 20.5,25.9844 Q21.1875,27.0469 22.5313,27.0469 Q23.1563,27.0469 23.75,26.7813 Q24.3438,26.5 24.9688,25.9219 L24.9688,28.6406 Z " fill="#000000"/><text fill="#000000" font-family="sans-serif" font-size="12" lengthAdjust="spacingAndGlyphs" textLength="23" x="36" y="27.1543">Foo</text><line style="stroke:#A80036;stroke-width:1.5;" x1="8" x2="61" y1="39" y2="39"/><line style="stroke:#A80036;stroke-width:1.5;" x1="8" x2="61" y1="47" y2="47"/><!--MD5=[fea15f7924bd848149aeb562f3a4d86b]
class Bar--><rect fill="#FEFECE" filter="url(#f3r4ckx9v51lu)" height="48" id="Bar" style="stroke:#A80036;stroke-width:1.5;" width="53" x="8" y="115"/><ellipse cx="23" cy="131" fill="#ADD1B2" rx="11" ry="11" style="stroke:#A80036;stroke-width:1.0;"/><path d="M25.9688,136.6406 Q25.3906,136.9375 24.75,137.0781 Q24.1094,137.2344 23.4063,137.2344 Q20.9063,137.2344 19.5781,135.5938 Q18.2656,133.9375 18.2656,130.8125 Q18.2656,127.6875 19.5781,126.0313 Q20.9063,124.375 23.4063,124.375 Q24.1094,124.375 24.75,124.5313 Q25.4063,124.6875 25.9688,124.9844 L25.9688,127.7031 Q25.3438,127.125 24.75,126.8594 Q24.1563,126.5781 23.5313,126.5781 Q22.1875,126.5781 21.5,127.6563 Q20.8125,128.7188 20.8125,130.8125 Q20.8125,132.9063 21.5,133.9844 Q22.1875,135.0469 23.5313,135.0469 Q24.1563,135.0469 24.75,134.7813 Q25.3438,134.5 25.9688,133.9219 L25.9688,136.6406 Z " fill="#000000"/><text fill="#000000" font-family="sans-serif" font-size="12" lengthAdjust="spacingAndGlyphs" textLength="21" x="37" y="135.1543">Bar</text><line style="stroke:#A80036;stroke-width:1.5;" x1="9" x2="60" y1="147" y2="147"/><line style="stroke:#A80036;stroke-width:1.5;" x1="9" x2="60" y1="155" y2="155"/><!--MD5=[ade8f35c5dc1c6dd50efa8fb67263844]
reverse link Foo to Bar--><path codeLine="1" d="M34.5,75.02 C34.5,88.58 34.5,103.04 34.5,114.68 " fill="none" id="Foo-backto-Bar" style="stroke:#A80036;stroke-width:1.0;"/><polygon fill="none" points="27.5,75,34.5,55,41.5,75,27.5,75" style="stroke:#A80036;stroke-width:1.0;"/><!--MD5=[bef35429de815a1f3c13885969b9bced]
@startuml
Foo <|- - Bar
@enduml

PlantUML version 1.2020.26(Mon Dec 21 12:45:07 EST 2020)
(GPL source distribution)
Java Runtime: OpenJDK Runtime Environment
JVM: OpenJDK 64-Bit Server VM
Default Encoding: UTF-8
Language: en
Country: null
--></g></svg>