<?xml version="1.0" encoding="UTF-8" standalone="no"?><svg xmlns="http://www.w3.org/2000/svg" xmlns:xlink="http://www.w3.org/1999/xlink" contentScriptType="application/ecmascript" contentStyleType="text/css" height="128px" preserveAspectRatio="none" style="width:456px;height:128px;" version="1.1" viewBox="0 0 456 128" width="456px" zoomAndPan="magnify"><defs><filter height="300%" id="f6qvxficli74p" width="300%" x="-1" y="-1"><feGaussianBlur result="blurOut" stdDeviation="2.0"/><feColorMatrix in="blurOut" result="blurOut2" type="matrix" values="0 0 0 0 0 0 0 0 0 0 0 0 0 0 0 0 0 0 .4 0"/><feOffset dx="4.0" dy="4.0" in="blurOut2" result="blurOut3"/><feBlend in="SourceGraphic" in2="blurOut3" mode="normal"/></filter></defs><g><!--MD5=[b2f23c4a06b9bc4c947f037f864aea3c]
class Class01--><rect fill="#F8F8F8" filter="url(#f6qvxficli74p)" height="23.9688" id="Class01" style="stroke:#383838;stroke-width:1.5;" width="59" x="7" y="7"/><ellipse cx="11" cy="18.9844" fill="#C2C2C2" rx="0" ry="0" style="stroke:#383838;stroke-width:1.0;"/><path d="M31.5,39.4844 Q31.5,39.4844 31.5,39.4844 Q31.5,39.4844 31.5,39.4844 Q31.5,39.4844 31.5,39.4844 Q31.5,39.4844 31.5,39.4844 Q31.5,39.4844 31.5,39.4844 Q31.5,39.4844 31.5,39.4844 Q31.5,39.4844 31.5,39.4844 Q31.5,39.4844 31.5,39.4844 L31.5,39.4844 Q31.5,39.4844 31.5,39.4844 Q31.5,39.4844 31.5,39.4844 Q31.5,39.4844 31.5,39.4844 Q31.5,39.4844 31.5,39.4844 Q31.5,39.4844 31.5,39.4844 Q31.5,39.4844 31.5,39.4844 Q31.5,39.4844 31.5,39.4844 Q31.5,39.4844 31.5,39.4844 L31.5,39.4844 Z " fill="#000000"/><text fill="#000000" font-family="sans-serif" font-size="12" lengthAdjust="spacingAndGlyphs" textLength="49" x="14" y="23.1387">Class01</text><!--MD5=[67b7f66b9c6b27d60ed6d0424460c06c]
class Class02--><rect fill="#F8F8F8" filter="url(#f6qvxficli74p)" height="23.9688" id="Class02" style="stroke:#383838;stroke-width:1.5;" width="59" x="7" y="91"/><ellipse cx="11" cy="102.9844" fill="#C2C2C2" rx="0" ry="0" style="stroke:#383838;stroke-width:1.0;"/><path d="M31.5,123.4844 Q31.5,123.4844 31.5,123.4844 Q31.5,123.4844 31.5,123.4844 Q31.5,123.4844 31.5,123.4844 Q31.5,123.4844 31.5,123.4844 Q31.5,123.4844 31.5,123.4844 Q31.5,123.4844 31.5,123.4844 Q31.5,123.4844 31.5,123.4844 Q31.5,123.4844 31.5,123.4844 L31.5,123.4844 Q31.5,123.4844 31.5,123.4844 Q31.5,123.4844 31.5,123.4844 Q31.5,123.4844 31.5,123.4844 Q31.5,123.4844 31.5,123.4844 Q31.5,123.4844 31.5,123.4844 Q31.5,123.4844 31.5,123.4844 Q31.5,123.4844 31.5,123.4844 Q31.5,123.4844 31.5,123.4844 L31.5,123.4844 Z " fill="#000000"/><text fill="#000000" font-family="sans-serif" font-size="12" lengthAdjust="spacingAndGlyphs" textLength="49" x="14" y="107.1387">Class02</text><!--MD5=[e34eefe962fcadefcbf83660cc436420]
class Class03--><rect fill="#F8F8F8" filter="url(#f6qvxficli74p)" height="23.9688" id="Class03" style="stroke:#383838;stroke-width:1.5;" width="59" x="101" y="7"/><ellipse cx="105" cy="18.9844" fill="#C2C2C2" rx="0" ry="0" style="stroke:#383838;stroke-width:1.0;"/><path d="M125.5,39.4844 Q125.5,39.4844 125.5,39.4844 Q125.5,39.4844 125.5,39.4844 Q125.5,39.4844 125.5,39.4844 Q125.5,39.4844 125.5,39.4844 Q125.5,39.4844 125.5,39.4844 Q125.5,39.4844 125.5,39.4844 Q125.5,39.4844 125.5,39.4844 Q125.5,39.4844 125.5,39.4844 L125.5,39.4844 Q125.5,39.4844 125.5,39.4844 Q125.5,39.4844 125.5,39.4844 Q125.5,39.4844 125.5,39.4844 Q125.5,39.4844 125.5,39.4844 Q125.5,39.4844 125.5,39.4844 Q125.5,39.4844 125.5,39.4844 Q125.5,39.4844 125.5,39.4844 Q125.5,39.4844 125.5,39.4844 L125.5,39.4844 Z " fill="#000000"/><text fill="#000000" font-family="sans-serif" font-size="12" lengthAdjust="spacingAndGlyphs" textLength="49" x="108" y="23.1387">Class03</text><!--MD5=[d53a23475d458e69a9e37a48405189e2]
class Class04--><rect fill="#F8F8F8" filter="url(#f6qvxficli74p)" height="23.9688" id="Class04" style="stroke:#383838;stroke-width:1.5;" width="59" x="101" y="91"/><ellipse cx="105" cy="102.9844" fill="#C2C2C2" rx="0" ry="0" style="stroke:#383838;stroke-width:1.0;"/><path d="M125.5,123.4844 Q125.5,123.4844 125.5,123.4844 Q125.5,123.4844 125.5,123.4844 Q125.5,123.4844 125.5,123.4844 Q125.5,123.4844 125.5,123.4844 Q125.5,123.4844 125.5,123.4844 Q125.5,123.4844 125.5,123.4844 Q125.5,123.4844 125.5,123.4844 Q125.5,123.4844 125.5,123.4844 L125.5,123.4844 Q125.5,123.4844 125.5,123.4844 Q125.5,123.4844 125.5,123.4844 Q125.5,123.4844 125.5,123.4844 Q125.5,123.4844 125.5,123.4844 Q125.5,123.4844 125.5,123.4844 Q125.5,123.4844 125.5,123.4844 Q125.5,123.4844 125.5,123.4844 Q125.5,123.4844 125.5,123.4844 L125.5,123.4844 Z " fill="#000000"/><text fill="#000000" font-family="sans-serif" font-size="12" lengthAdjust="spacingAndGlyphs" textLength="49" x="108" y="107.1387">Class04</text><!--MD5=[21c802bf509ebb275d96eccffaf3e0b6]
class Class05--><rect fill="#F8F8F8" filter="url(#f6qvxficli74p)" height="23.9688" id="Class05" style="stroke:#383838;stroke-width:1.5;" width="59" x="195" y="7"/><ellipse cx="199" cy="18.9844" fill="#C2C2C2" rx="0" ry="0" style="stroke:#383838;stroke-width:1.0;"/><path d="M219.5,39.4844 Q219.5,39.4844 219.5,39.4844 Q219.5,39.4844 219.5,39.4844 Q219.5,39.4844 219.5,39.4844 Q219.5,39.4844 219.5,39.4844 Q219.5,39.4844 219.5,39.4844 Q219.5,39.4844 219.5,39.4844 Q219.5,39.4844 219.5,39.4844 Q219.5,39.4844 219.5,39.4844 L219.5,39.4844 Q219.5,39.4844 219.5,39.4844 Q219.5,39.4844 219.5,39.4844 Q219.5,39.4844 219.5,39.4844 Q219.5,39.4844 219.5,39.4844 Q219.5,39.4844 219.5,39.4844 Q219.5,39.4844 219.5,39.4844 Q219.5,39.4844 219.5,39.4844 Q219.5,39.4844 219.5,39.4844 L219.5,39.4844 Z " fill="#000000"/><text fill="#000000" font-family="sans-serif" font-size="12" lengthAdjust="spacingAndGlyphs" textLength="49" x="202" y="23.1387">Class05</text><!--MD5=[247dd373b5711b206209116e093ec52c]
class Class06--><rect fill="#F8F8F8" filter="url(#f6qvxficli74p)" height="23.9688" id="Class06" style="stroke:#383838;stroke-width:1.5;" width="59" x="195" y="91"/><ellipse cx="199" cy="102.9844" fill="#C2C2C2" rx="0" ry="0" style="stroke:#383838;stroke-width:1.0;"/><path d="M219.5,123.4844 Q219.5,123.4844 219.5,123.4844 Q219.5,123.4844 219.5,123.4844 Q219.5,123.4844 219.5,123.4844 Q219.5,123.4844 219.5,123.4844 Q219.5,123.4844 219.5,123.4844 Q219.5,123.4844 219.5,123.4844 Q219.5,123.4844 219.5,123.4844 Q219.5,123.4844 219.5,123.4844 L219.5,123.4844 Q219.5,123.4844 219.5,123.4844 Q219.5,123.4844 219.5,123.4844 Q219.5,123.4844 219.5,123.4844 Q219.5,123.4844 219.5,123.4844 Q219.5,123.4844 219.5,123.4844 Q219.5,123.4844 219.5,123.4844 Q219.5,123.4844 219.5,123.4844 Q219.5,123.4844 219.5,123.4844 L219.5,123.4844 Z " fill="#000000"/><text fill="#000000" font-family="sans-serif" font-size="12" lengthAdjust="spacingAndGlyphs" textLength="49" x="202" y="107.1387">Class06</text><!--MD5=[83017deacfdfe1c29bd0eb2a2cc9c723]
class Class07--><rect fill="#F8F8F8" filter="url(#f6qvxficli74p)" height="23.9688" id="Class07" style="stroke:#383838;stroke-width:1.5;" width="59" x="289" y="7"/><ellipse cx="293" cy="18.9844" fill="#C2C2C2" rx="0" ry="0" style="stroke:#383838;stroke-width:1.0;"/><path d="M313.5,39.4844 Q313.5,39.4844 313.5,39.4844 Q313.5,39.4844 313.5,39.4844 Q313.5,39.4844 313.5,39.4844 Q313.5,39.4844 313.5,39.4844 Q313.5,39.4844 313.5,39.4844 Q313.5,39.4844 313.5,39.4844 Q313.5,39.4844 313.5,39.4844 Q313.5,39.4844 313.5,39.4844 L313.5,39.4844 Q313.5,39.4844 313.5,39.4844 Q313.5,39.4844 313.5,39.4844 Q313.5,39.4844 313.5,39.4844 Q313.5,39.4844 313.5,39.4844 Q313.5,39.4844 313.5,39.4844 Q313.5,39.4844 313.5,39.4844 Q313.5,39.4844 313.5,39.4844 Q313.5,39.4844 313.5,39.4844 L313.5,39.4844 Z " fill="#000000"/><text fill="#000000" font-family="sans-serif" font-size="12" lengthAdjust="spacingAndGlyphs" textLength="49" x="296" y="23.1387">Class07</text><!--MD5=[0e75c8574cc137f0f93c5ac687b4b98c]
class Class08--><rect fill="#F8F8F8" filter="url(#f6qvxficli74p)" height="23.9688" id="Class08" style="stroke:#383838;stroke-width:1.5;" width="59" x="289" y="91"/><ellipse cx="293" cy="102.9844" fill="#C2C2C2" rx="0" ry="0" style="stroke:#383838;stroke-width:1.0;"/><path d="M313.5,123.4844 Q313.5,123.4844 313.5,123.4844 Q313.5,123.4844 313.5,123.4844 Q313.5,123.4844 313.5,123.4844 Q313.5,123.4844 313.5,123.4844 Q313.5,123.4844 313.5,123.4844 Q313.5,123.4844 313.5,123.4844 Q313.5,123.4844 313.5,123.4844 Q313.5,123.4844 313.5,123.4844 L313.5,123.4844 Q313.5,123.4844 313.5,123.4844 Q313.5,123.4844 313.5,123.4844 Q313.5,123.4844 313.5,123.4844 Q313.5,123.4844 313.5,123.4844 Q313.5,123.4844 313.5,123.4844 Q313.5,123.4844 313.5,123.4844 Q313.5,123.4844 313.5,123.4844 Q313.5,123.4844 313.5,123.4844 L313.5,123.4844 Z " fill="#000000"/><text fill="#000000" font-family="sans-serif" font-size="12" lengthAdjust="spacingAndGlyphs" textLength="49" x="296" y="107.1387">Class08</text><!--MD5=[11c0341282256c64706f32de960d439a]
class Class09--><rect fill="#F8F8F8" filter="url(#f6qvxficli74p)" height="23.9688" id="Class09" style="stroke:#383838;stroke-width:1.5;" width="59" x="383" y="7"/><ellipse cx="387" cy="18.9844" fill="#C2C2C2" rx="0" ry="0" style="stroke:#383838;stroke-width:1.0;"/><path d="M407.5,39.4844 Q407.5,39.4844 407.5,39.4844 Q407.5,39.4844 407.5,39.4844 Q407.5,39.4844 407.5,39.4844 Q407.5,39.4844 407.5,39.4844 Q407.5,39.4844 407.5,39.4844 Q407.5,39.4844 407.5,39.4844 Q407.5,39.4844 407.5,39.4844 Q407.5,39.4844 407.5,39.4844 L407.5,39.4844 Q407.5,39.4844 407.5,39.4844 Q407.5,39.4844 407.5,39.4844 Q407.5,39.4844 407.5,39.4844 Q407.5,39.4844 407.5,39.4844 Q407.5,39.4844 407.5,39.4844 Q407.5,39.4844 407.5,39.4844 Q407.5,39.4844 407.5,39.4844 Q407.5,39.4844 407.5,39.4844 L407.5,39.4844 Z " fill="#000000"/><text fill="#000000" font-family="sans-serif" font-size="12" lengthAdjust="spacingAndGlyphs" textLength="49" x="390" y="23.1387">Class09</text><!--MD5=[f0780a43e5c0af3c52b439b7f3f3994e]
class Class10--><rect fill="#F8F8F8" filter="url(#f6qvxficli74p)" height="23.9688" id="Class10" style="stroke:#383838;stroke-width:1.5;" width="59" x="383" y="91"/><ellipse cx="387" cy="102.9844" fill="#C2C2C2" rx="0" ry="0" style="stroke:#383838;stroke-width:1.0;"/><path d="M407.5,123.4844 Q407.5,123.4844 407.5,123.4844 Q407.5,123.4844 407.5,123.4844 Q407.5,123.4844 407.5,123.4844 Q407.5,123.4844 407.5,123.4844 Q407.5,123.4844 407.5,123.4844 Q407.5,123.4844 407.5,123.4844 Q407.5,123.4844 407.5,123.4844 Q407.5,123.4844 407.5,123.4844 L407.5,123.4844 Q407.5,123.4844 407.5,123.4844 Q407.5,123.4844 407.5,123.4844 Q407.5,123.4844 407.5,123.4844 Q407.5,123.4844 407.5,123.4844 Q407.5,123.4844 407.5,123.4844 Q407.5,123.4844 407.5,123.4844 Q407.5,123.4844 407.5,123.4844 Q407.5,123.4844 407.5,123.4844 L407.5,123.4844 Z " fill="#000000"/><text fill="#000000" font-family="sans-serif" font-size="12" lengthAdjust="spacingAndGlyphs" textLength="49" x="390" y="107.1387">Class10</text><!--MD5=[3ab52052fd7925c5f64fca5d41d6866e]
reverse link Class01 to Class02--><path codeLine="9" d="M36.5,51.2 C36.5,65.14 36.5,80.68 36.5,90.85 " fill="none" id="Class01-backto-Class02" style="stroke:#383838;stroke-width:1.0;"/><polygon fill="none" points="29.5,51.06,36.5,31.06,43.5,51.06,29.5,51.06" style="stroke:#383838;stroke-width:1.0;"/><!--MD5=[0815ca07f8d628dc1a46a48ef0cd4c01]
reverse link Class03 to Class04--><path codeLine="10" d="M130.5,44.32 C130.5,59.74 130.5,78.96 130.5,90.85 " fill="none" id="Class03-backto-Class04" style="stroke:#383838;stroke-width:1.0;"/><polygon fill="#383838" points="130.5,31.06,126.5,37.06,130.5,43.06,134.5,37.06,130.5,31.06" style="stroke:#383838;stroke-width:1.0;"/><!--MD5=[07ec844cc9d193d99f69abe09e63aa9e]
reverse link Class05 to Class06--><path codeLine="11" d="M224.5,44.32 C224.5,59.74 224.5,78.96 224.5,90.85 " fill="none" id="Class05-backto-Class06" style="stroke:#383838;stroke-width:1.0;"/><polygon fill="#FFFFFF" points="224.5,31.06,220.5,37.06,224.5,43.06,228.5,37.06,224.5,31.06" style="stroke:#383838;stroke-width:1.0;"/><!--MD5=[cd6c6022d9f7be31b268d5c573778c45]
link Class07 to Class08--><path codeLine="12" d="M318.5,31.06 C318.5,46.71 318.5,75.16 318.5,90.85 " fill="none" id="Class07-Class08" style="stroke:#383838;stroke-width:1.0;stroke-dasharray:7.0,7.0;"/><!--MD5=[012abb55b9b004b4a603a60db8edb83a]
link Class09 to Class10--><path codeLine="13" d="M412.5,31.06 C412.5,46.71 412.5,75.16 412.5,90.85 " fill="none" id="Class09-Class10" style="stroke:#383838;stroke-width:1.0;"/><!--MD5=[2783c4ee69783e3d6c510177d42f9333]
@startuml

'style options
skinparam monochrome true
skinparam circledCharacterRadius 0
skinparam circledCharacterFontSize 0
skinparam classAttributeIconSize 0
hide empty members

Class01 <|- - Class02
Class03 *- - Class04
Class05 o- - Class06
Class07 .. Class08
Class09 - - Class10

@enduml

@startuml

skinparam monochrome true
skinparam circledCharacterRadius 0
skinparam circledCharacterFontSize 0
skinparam classAttributeIconSize 0
hide empty members

Class01 <|- - Class02
Class03 *- - Class04
Class05 o- - Class06
Class07 .. Class08
Class09 - - Class10

@enduml

PlantUML version 1.2020.26(Mon Dec 21 12:45:07 EST 2020)
(GPL source distribution)
Java Runtime: OpenJDK Runtime Environment
JVM: OpenJDK 64-Bit Server VM
Default Encoding: UTF-8
Language: en
Country: null
--></g></svg>