<?xml version="1.0" encoding="UTF-8" standalone="no"?><svg xmlns="http://www.w3.org/2000/svg" xmlns:xlink="http://www.w3.org/1999/xlink" contentScriptType="application/ecmascript" contentStyleType="text/css" height="984px" preserveAspectRatio="none" style="width:642px;height:984px;" version="1.1" viewBox="0 0 642 984" width="642px" zoomAndPan="magnify"><defs><filter height="300%" id="fssk4wg4cq9kg" width="300%" x="-1" y="-1"><feGaussianBlur result="blurOut" stdDeviation="2.0"/><feColorMatrix in="blurOut" result="blurOut2" type="matrix" values="0 0 0 0 0 0 0 0 0 0 0 0 0 0 0 0 0 0 .4 0"/><feOffset dx="4.0" dy="4.0" in="blurOut2" result="blurOut3"/><feBlend in="SourceGraphic" in2="blurOut3" mode="normal"/></filter></defs><g><ellipse cx="317" cy="20" fill="#000000" filter="url(#fssk4wg4cq9kg)" rx="10" ry="10" style="stroke:none;stroke-width:1.0;"/><rect fill="#FEFECE" filter="url(#fssk4wg4cq9kg)" height="33.9688" rx="12.5" ry="12.5" style="stroke:#A80036;stroke-width:1.5;" width="91" x="271.5" y="50"/><text fill="#000000" font-family="sans-serif" font-size="12" lengthAdjust="spacingAndGlyphs" textLength="71" x="281.5" y="71.1387">first activity</text><rect fill="#FEFECE" filter="url(#fssk4wg4cq9kg)" height="61.9063" rx="12.5" ry="12.5" style="stroke:#A80036;stroke-width:1.5;" width="192" x="221" y="103.9688"/><text fill="#000000" font-family="sans-serif" font-size="12" lengthAdjust="spacingAndGlyphs" textLength="93" x="231" y="125.1074">second activity</text><text fill="#000000" font-family="sans-serif" font-size="12" lengthAdjust="spacingAndGlyphs" textLength="93" x="231" y="139.0762">with a multiline</text><text fill="#000000" font-family="sans-serif" font-size="12" lengthAdjust="spacingAndGlyphs" textLength="172" x="231" y="153.0449">and rather long description</text><path d="M395.5,182.7266 L395.5,198.8594 L375.5,202.8594 L395.5,206.8594 L395.5,222.9922 A0,0 0 0 0 395.5,222.9922 L615.5,222.9922 A0,0 0 0 0 615.5,222.9922 L615.5,192.7266 L605.5,182.7266 L395.5,182.7266 A0,0 0 0 0 395.5,182.7266 " fill="#FBFB77" filter="url(#fssk4wg4cq9kg)" style="stroke:#A80036;stroke-width:1.0;"/><path d="M605.5,182.7266 L605.5,192.7266 L615.5,192.7266 L605.5,182.7266 " fill="#FBFB77" style="stroke:#A80036;stroke-width:1.0;"/><text fill="#000000" font-family="sans-serif" font-size="13" lengthAdjust="spacingAndGlyphs" textLength="111" x="401.5" y="199.7935">After this activity,</text><text fill="#000000" font-family="sans-serif" font-size="13" lengthAdjust="spacingAndGlyphs" textLength="199" x="401.5" y="214.9263">are two 'if-then-else' examples.</text><rect fill="#FEFECE" filter="url(#fssk4wg4cq9kg)" height="33.9688" rx="12.5" ry="12.5" style="stroke:#A80036;stroke-width:1.5;" width="117" x="258.5" y="185.875"/><text fill="#000000" font-family="sans-serif" font-size="12" lengthAdjust="spacingAndGlyphs" textLength="97" x="268.5" y="207.0137">another activity</text><polygon fill="#FEFECE" filter="url(#fssk4wg4cq9kg)" points="261,242.9922,373,242.9922,385,254.9922,373,266.9922,261,266.9922,249,254.9922,261,242.9922" style="stroke:#A80036;stroke-width:1.5;"/><text fill="#000000" font-family="sans-serif" font-size="11" lengthAdjust="spacingAndGlyphs" textLength="112" x="261" y="258.8003">do optional activity?</text><text fill="#000000" font-family="sans-serif" font-size="11" lengthAdjust="spacingAndGlyphs" textLength="20" x="229" y="252.3979">yes</text><text fill="#000000" font-family="sans-serif" font-size="11" lengthAdjust="spacingAndGlyphs" textLength="14" x="385" y="252.3979">no</text><rect fill="#FEFECE" filter="url(#fssk4wg4cq9kg)" height="33.9688" rx="12.5" ry="12.5" style="stroke:#A80036;stroke-width:1.5;" width="118" x="180" y="276.9922"/><text fill="#000000" font-family="sans-serif" font-size="12" lengthAdjust="spacingAndGlyphs" textLength="98" x="190" y="298.1309">optional activity</text><polygon fill="#FEFECE" filter="url(#fssk4wg4cq9kg)" points="359,276.9922,431,276.9922,443,288.9922,431,300.9922,359,300.9922,347,288.9922,359,276.9922" style="stroke:#A80036;stroke-width:1.5;"/><text fill="#000000" font-family="sans-serif" font-size="11" lengthAdjust="spacingAndGlyphs" textLength="53" x="399" y="311.2026">not really</text><text fill="#000000" font-family="sans-serif" font-size="11" lengthAdjust="spacingAndGlyphs" textLength="72" x="359" y="292.8003">want to exit?</text><text fill="#000000" font-family="sans-serif" font-size="11" lengthAdjust="spacingAndGlyphs" textLength="56" x="443" y="286.3979">right now!</text><ellipse cx="521" cy="288.9922" fill="#FFFFFF" filter="url(#fssk4wg4cq9kg)" rx="11" ry="11" style="stroke:#000000;stroke-width:1.0;"/><ellipse cx="521" cy="288.9922" fill="#000000" rx="6" ry="6" style="stroke:#7F7F7F;stroke-width:1.0;"/><polygon fill="#FEFECE" filter="url(#fssk4wg4cq9kg)" points="317,322.7026,329,334.7026,317,346.7026,305,334.7026,317,322.7026" style="stroke:#A80036;stroke-width:1.5;"/><path d="M57,363.5542 L57,403.8198 A0,0 0 0 0 57,403.8198 L249,403.8198 A0,0 0 0 0 249,403.8198 L249,387.687 L269,383.687 L249,379.687 L249,373.5542 L239,363.5542 L57,363.5542 A0,0 0 0 0 57,363.5542 " fill="#FBFB77" filter="url(#fssk4wg4cq9kg)" style="stroke:#A80036;stroke-width:1.0;"/><path d="M239,363.5542 L239,373.5542 L249,373.5542 L239,363.5542 " fill="#FBFB77" style="stroke:#A80036;stroke-width:1.0;"/><text fill="#000000" font-family="sans-serif" font-size="13" lengthAdjust="spacingAndGlyphs" textLength="111" x="63" y="380.6211">After this activity,</text><text fill="#000000" font-family="sans-serif" font-size="13" lengthAdjust="spacingAndGlyphs" textLength="171" x="63" y="395.7539">parallel activities will occur.</text><rect fill="#FEFECE" filter="url(#fssk4wg4cq9kg)" height="33.9688" rx="12.5" ry="12.5" style="stroke:#A80036;stroke-width:1.5;" width="96" x="269" y="366.7026"/><text fill="#000000" font-family="sans-serif" font-size="12" lengthAdjust="spacingAndGlyphs" textLength="76" x="279" y="387.8413">third activity</text><rect fill="#000000" filter="url(#fssk4wg4cq9kg)" height="6" rx="2.5" ry="2.5" style="stroke:#000000;stroke-width:1.0;" width="614" x="11" y="423.8198"/><rect fill="#FEFECE" filter="url(#fssk4wg4cq9kg)" height="33.9688" rx="12.5" ry="12.5" style="stroke:#A80036;stroke-width:1.5;" width="149" x="23" y="510.3042"/><text fill="#000000" font-family="sans-serif" font-size="12" lengthAdjust="spacingAndGlyphs" textLength="129" x="33" y="531.4429">Concurrent activity A</text><rect fill="#FEFECE" filter="url(#fssk4wg4cq9kg)" height="33.9688" rx="12.5" ry="12.5" style="stroke:#A80036;stroke-width:1.5;" width="157" x="200" y="475.8198"/><text fill="#000000" font-family="sans-serif" font-size="12" lengthAdjust="spacingAndGlyphs" textLength="137" x="210" y="496.9585">Concurrent activity B1</text><rect fill="#FEFECE" filter="url(#fssk4wg4cq9kg)" height="33.9688" rx="12.5" ry="12.5" style="stroke:#A80036;stroke-width:1.5;" width="157" x="200" y="544.7886"/><text fill="#000000" font-family="sans-serif" font-size="12" lengthAdjust="spacingAndGlyphs" textLength="137" x="210" y="565.9272">Concurrent activity B2</text><rect fill="#FEFECE" filter="url(#fssk4wg4cq9kg)" height="33.9688" rx="12.5" ry="12.5" style="stroke:#A80036;stroke-width:1.5;" width="149" x="423.5" y="449.8198"/><text fill="#000000" font-family="sans-serif" font-size="12" lengthAdjust="spacingAndGlyphs" textLength="129" x="433.5" y="470.9585">Concurrent activity C</text><rect fill="#000000" filter="url(#fssk4wg4cq9kg)" height="6" rx="2.5" ry="2.5" style="stroke:#000000;stroke-width:1.0;" width="226" x="385" y="518.7886"/><rect fill="#FEFECE" filter="url(#fssk4wg4cq9kg)" height="33.9688" rx="12.5" ry="12.5" style="stroke:#A80036;stroke-width:1.5;" width="85" x="399" y="544.7886"/><text fill="#000000" font-family="sans-serif" font-size="12" lengthAdjust="spacingAndGlyphs" textLength="65" x="409" y="565.9272">Nested C1</text><rect fill="#FEFECE" filter="url(#fssk4wg4cq9kg)" height="33.9688" rx="12.5" ry="12.5" style="stroke:#A80036;stroke-width:1.5;" width="85" x="512" y="544.7886"/><text fill="#000000" font-family="sans-serif" font-size="12" lengthAdjust="spacingAndGlyphs" textLength="65" x="522" y="565.9272">Nested C2</text><rect fill="#000000" filter="url(#fssk4wg4cq9kg)" height="6" rx="2.5" ry="2.5" style="stroke:#000000;stroke-width:1.0;" width="226" x="385" y="598.7573"/><rect fill="#000000" filter="url(#fssk4wg4cq9kg)" height="6" rx="2.5" ry="2.5" style="stroke:#000000;stroke-width:1.0;" width="614" x="11" y="624.7573"/><rect fill="#FEFECE" filter="url(#fssk4wg4cq9kg)" height="33.9688" rx="12.5" ry="12.5" style="stroke:#A80036;stroke-width:1.5;" width="126" x="254" y="694.7573"/><text fill="#000000" font-family="sans-serif" font-size="12" lengthAdjust="spacingAndGlyphs" textLength="106" x="264" y="715.896">repetitive activity</text><polygon fill="#FEFECE" filter="url(#fssk4wg4cq9kg)" points="317,650.7573,329,662.7573,317,674.7573,305,662.7573,317,650.7573" style="stroke:#A80036;stroke-width:1.5;"/><polygon fill="#FEFECE" filter="url(#fssk4wg4cq9kg)" points="298.5,748.7261,335.5,748.7261,347.5,760.7261,335.5,772.7261,298.5,772.7261,286.5,760.7261,298.5,748.7261" style="stroke:#A80036;stroke-width:1.5;"/><text fill="#000000" font-family="sans-serif" font-size="11" lengthAdjust="spacingAndGlyphs" textLength="37" x="298.5" y="764.5342">again?</text><rect fill="#FEFECE" filter="url(#fssk4wg4cq9kg)" height="33.9688" rx="12.5" ry="12.5" style="stroke:#A80036;stroke-width:1.5;" width="223" x="205.5" y="853.5308"/><text fill="#000000" font-family="sans-serif" font-size="12" lengthAdjust="spacingAndGlyphs" textLength="203" x="215.5" y="874.6694">first activity inside the while loop</text><rect fill="#FEFECE" filter="url(#fssk4wg4cq9kg)" height="33.9688" rx="12.5" ry="12.5" style="stroke:#A80036;stroke-width:1.5;" width="245" x="194.5" y="916.5972"/><text fill="#000000" font-family="sans-serif" font-size="12" lengthAdjust="spacingAndGlyphs" textLength="225" x="204.5" y="937.7358">second activity inside the while loop</text><polygon fill="#FEFECE" filter="url(#fssk4wg4cq9kg)" points="290,792.7261,344,792.7261,356,804.7261,344,816.7261,290,816.7261,278,804.7261,290,792.7261" style="stroke:#A80036;stroke-width:1.5;"/><text fill="#000000" font-family="sans-serif" font-size="11" lengthAdjust="spacingAndGlyphs" textLength="82" x="321" y="826.9365">yes, of course</text><text fill="#000000" font-family="sans-serif" font-size="11" lengthAdjust="spacingAndGlyphs" textLength="54" x="290" y="808.5342">continue?</text><text fill="#000000" font-family="sans-serif" font-size="11" lengthAdjust="spacingAndGlyphs" textLength="14" x="264" y="802.1318">no</text><ellipse cx="171.5" cy="851.7261" fill="#FFFFFF" filter="url(#fssk4wg4cq9kg)" rx="11" ry="11" style="stroke:#000000;stroke-width:1.0;"/><ellipse cx="171.5" cy="851.7261" fill="#000000" rx="6" ry="6" style="stroke:#7F7F7F;stroke-width:1.0;"/><line style="stroke:#A80036;stroke-width:1.5;" x1="317" x2="317" y1="30" y2="50"/><polygon fill="#A80036" points="313,40,317,50,321,40,317,44" style="stroke:#A80036;stroke-width:1.0;"/><line style="stroke:#A80036;stroke-width:1.5;" x1="317" x2="317" y1="83.9688" y2="103.9688"/><polygon fill="#A80036" points="313,93.9688,317,103.9688,321,93.9688,317,97.9688" style="stroke:#A80036;stroke-width:1.0;"/><line style="stroke:#A80036;stroke-width:1.5;" x1="317" x2="317" y1="165.875" y2="185.875"/><polygon fill="#A80036" points="313,175.875,317,185.875,321,175.875,317,179.875" style="stroke:#A80036;stroke-width:1.0;"/><line style="stroke:#A80036;stroke-width:1.5;" x1="395" x2="395" y1="300.9922" y2="334.7026"/><line style="stroke:#A80036;stroke-width:1.5;" x1="395" x2="329" y1="334.7026" y2="334.7026"/><polygon fill="#A80036" points="339,330.7026,329,334.7026,339,338.7026,335,334.7026" style="stroke:#A80036;stroke-width:1.0;"/><line style="stroke:#A80036;stroke-width:1.5;" x1="443" x2="510" y1="288.9922" y2="288.9922"/><polygon fill="#A80036" points="500,284.9922,510,288.9922,500,292.9922,504,288.9922" style="stroke:#A80036;stroke-width:1.0;"/><line style="stroke:#A80036;stroke-width:1.5;" x1="249" x2="239" y1="254.9922" y2="254.9922"/><line style="stroke:#A80036;stroke-width:1.5;" x1="239" x2="239" y1="254.9922" y2="276.9922"/><polygon fill="#A80036" points="235,266.9922,239,276.9922,243,266.9922,239,270.9922" style="stroke:#A80036;stroke-width:1.0;"/><line style="stroke:#A80036;stroke-width:1.5;" x1="385" x2="395" y1="254.9922" y2="254.9922"/><line style="stroke:#A80036;stroke-width:1.5;" x1="395" x2="395" y1="254.9922" y2="276.9922"/><polygon fill="#A80036" points="391,266.9922,395,276.9922,399,266.9922,395,270.9922" style="stroke:#A80036;stroke-width:1.0;"/><line style="stroke:#A80036;stroke-width:1.5;" x1="239" x2="239" y1="310.9609" y2="334.7026"/><line style="stroke:#A80036;stroke-width:1.5;" x1="239" x2="305" y1="334.7026" y2="334.7026"/><polygon fill="#A80036" points="295,330.7026,305,334.7026,295,338.7026,299,334.7026" style="stroke:#A80036;stroke-width:1.0;"/><line style="stroke:#A80036;stroke-width:1.5;" x1="317" x2="317" y1="219.8438" y2="242.9922"/><polygon fill="#A80036" points="313,232.9922,317,242.9922,321,232.9922,317,236.9922" style="stroke:#A80036;stroke-width:1.0;"/><line style="stroke:#A80036;stroke-width:1.5;" x1="317" x2="317" y1="346.7026" y2="366.7026"/><polygon fill="#A80036" points="313,356.7026,317,366.7026,321,356.7026,317,360.7026" style="stroke:#A80036;stroke-width:1.0;"/><line style="stroke:#A80036;stroke-width:1.5;" x1="278.5" x2="278.5" y1="509.7886" y2="544.7886"/><polygon fill="#A80036" points="274.5,534.7886,278.5,544.7886,282.5,534.7886,278.5,538.7886" style="stroke:#A80036;stroke-width:1.0;"/><line style="stroke:#A80036;stroke-width:1.5;" x1="441.5" x2="441.5" y1="524.7886" y2="544.7886"/><polygon fill="#A80036" points="437.5,534.7886,441.5,544.7886,445.5,534.7886,441.5,538.7886" style="stroke:#A80036;stroke-width:1.0;"/><line style="stroke:#A80036;stroke-width:1.5;" x1="554.5" x2="554.5" y1="524.7886" y2="544.7886"/><polygon fill="#A80036" points="550.5,534.7886,554.5,544.7886,558.5,534.7886,554.5,538.7886" style="stroke:#A80036;stroke-width:1.0;"/><line style="stroke:#A80036;stroke-width:1.5;" x1="441.5" x2="441.5" y1="578.7573" y2="598.7573"/><polygon fill="#A80036" points="437.5,588.7573,441.5,598.7573,445.5,588.7573,441.5,592.7573" style="stroke:#A80036;stroke-width:1.0;"/><line style="stroke:#A80036;stroke-width:1.5;" x1="554.5" x2="554.5" y1="578.7573" y2="598.7573"/><polygon fill="#A80036" points="550.5,588.7573,554.5,598.7573,558.5,588.7573,554.5,592.7573" style="stroke:#A80036;stroke-width:1.0;"/><line style="stroke:#A80036;stroke-width:1.5;" x1="498" x2="498" y1="483.7886" y2="518.7886"/><polygon fill="#A80036" points="494,508.7886,498,518.7886,502,508.7886,498,512.7886" style="stroke:#A80036;stroke-width:1.0;"/><line style="stroke:#A80036;stroke-width:1.5;" x1="97.5" x2="97.5" y1="429.8198" y2="510.3042"/><polygon fill="#A80036" points="93.5,500.3042,97.5,510.3042,101.5,500.3042,97.5,504.3042" style="stroke:#A80036;stroke-width:1.0;"/><line style="stroke:#A80036;stroke-width:1.5;" x1="278.5" x2="278.5" y1="429.8198" y2="475.8198"/><polygon fill="#A80036" points="274.5,465.8198,278.5,475.8198,282.5,465.8198,278.5,469.8198" style="stroke:#A80036;stroke-width:1.0;"/><line style="stroke:#A80036;stroke-width:1.5;" x1="498" x2="498" y1="429.8198" y2="449.8198"/><polygon fill="#A80036" points="494,439.8198,498,449.8198,502,439.8198,498,443.8198" style="stroke:#A80036;stroke-width:1.0;"/><line style="stroke:#A80036;stroke-width:1.5;" x1="97.5" x2="97.5" y1="544.2729" y2="624.7573"/><polygon fill="#A80036" points="93.5,614.7573,97.5,624.7573,101.5,614.7573,97.5,618.7573" style="stroke:#A80036;stroke-width:1.0;"/><line style="stroke:#A80036;stroke-width:1.5;" x1="278.5" x2="278.5" y1="578.7573" y2="624.7573"/><polygon fill="#A80036" points="274.5,614.7573,278.5,624.7573,282.5,614.7573,278.5,618.7573" style="stroke:#A80036;stroke-width:1.0;"/><line style="stroke:#A80036;stroke-width:1.5;" x1="498" x2="498" y1="604.7573" y2="624.7573"/><polygon fill="#A80036" points="494,614.7573,498,624.7573,502,614.7573,498,618.7573" style="stroke:#A80036;stroke-width:1.0;"/><line style="stroke:#A80036;stroke-width:1.5;" x1="317" x2="317" y1="400.6714" y2="423.8198"/><polygon fill="#A80036" points="313,413.8198,317,423.8198,321,413.8198,317,417.8198" style="stroke:#A80036;stroke-width:1.0;"/><line style="stroke:#A80036;stroke-width:1.5;" x1="317" x2="317" y1="674.7573" y2="694.7573"/><polygon fill="#A80036" points="313,684.7573,317,694.7573,321,684.7573,317,688.7573" style="stroke:#A80036;stroke-width:1.0;"/><line style="stroke:#A80036;stroke-width:1.5;" x1="347.5" x2="392" y1="760.7261" y2="760.7261"/><polygon fill="#A80036" points="388,721.7417,392,711.7417,396,721.7417,392,717.7417" style="stroke:#A80036;stroke-width:1.5;"/><line style="stroke:#A80036;stroke-width:1.5;" x1="392" x2="392" y1="662.7573" y2="760.7261"/><line style="stroke:#A80036;stroke-width:1.5;" x1="392" x2="329" y1="662.7573" y2="662.7573"/><polygon fill="#A80036" points="339,658.7573,329,662.7573,339,666.7573,335,662.7573" style="stroke:#A80036;stroke-width:1.0;"/><line style="stroke:#A80036;stroke-width:1.5;" x1="317" x2="317" y1="728.7261" y2="748.7261"/><polygon fill="#A80036" points="313,738.7261,317,748.7261,321,738.7261,317,742.7261" style="stroke:#A80036;stroke-width:1.0;"/><line style="stroke:#A80036;stroke-width:1.5;" x1="317" x2="317" y1="630.7573" y2="650.7573"/><polygon fill="#A80036" points="313,640.7573,317,650.7573,321,640.7573,317,644.7573" style="stroke:#A80036;stroke-width:1.0;"/><line style="stroke:#A80036;stroke-width:1.5;" x1="317" x2="317" y1="887.4995" y2="916.5972"/><polygon fill="#A80036" points="313,906.5972,317,916.5972,321,906.5972,317,910.5972" style="stroke:#A80036;stroke-width:1.0;"/><line style="stroke:#A80036;stroke-width:1.5;" x1="317" x2="317" y1="816.7261" y2="853.5308"/><polygon fill="#A80036" points="313,843.5308,317,853.5308,321,843.5308,317,847.5308" style="stroke:#A80036;stroke-width:1.0;"/><line style="stroke:#A80036;stroke-width:1.5;" x1="317" x2="317" y1="950.5659" y2="960.5659"/><line style="stroke:#A80036;stroke-width:1.5;" x1="317" x2="451.5" y1="960.5659" y2="960.5659"/><polygon fill="#A80036" points="447.5,896.5972,451.5,886.5972,455.5,896.5972,451.5,892.5972" style="stroke:#A80036;stroke-width:1.5;"/><line style="stroke:#A80036;stroke-width:1.5;" x1="451.5" x2="451.5" y1="804.7261" y2="960.5659"/><line style="stroke:#A80036;stroke-width:1.5;" x1="451.5" x2="356" y1="804.7261" y2="804.7261"/><polygon fill="#A80036" points="366,800.7261,356,804.7261,366,808.7261,362,804.7261" style="stroke:#A80036;stroke-width:1.0;"/><line style="stroke:#A80036;stroke-width:1.5;" x1="278" x2="171.5" y1="804.7261" y2="804.7261"/><line style="stroke:#A80036;stroke-width:1.5;" x1="171.5" x2="171.5" y1="804.7261" y2="840.7261"/><polygon fill="#A80036" points="167.5,830.7261,171.5,840.7261,175.5,830.7261,171.5,834.7261" style="stroke:#A80036;stroke-width:1.0;"/><line style="stroke:#A80036;stroke-width:1.5;" x1="317" x2="317" y1="772.7261" y2="792.7261"/><polygon fill="#A80036" points="313,782.7261,317,792.7261,321,782.7261,317,786.7261" style="stroke:#A80036;stroke-width:1.0;"/><!--MD5=[8afce58077b34285f9c4a978bb8e72ba]
@startuml

start

:first activity;

:second activity
with a multiline
and rather long description;

:another activity;

note right
 After this activity,
 are two 'if-then-else' examples.
end note

if (do optional activity?) then (yes)
  :optional activity;
else (no)

  if (want to exit?) then (right now!)
     stop
  else (not really)

  endif

endif

:third activity;

note left
 After this activity,
 parallel activities will occur.
end note

fork
  :Concurrent activity A;
fork again
  :Concurrent activity B1;
  :Concurrent activity B2;
fork again
  :Concurrent activity C;
  fork
  :Nested C1;
  fork again
  :Nested C2;
  end fork
end fork

repeat
  :repetitive activity;
repeat while (again?)

while (continue?) is (yes, of course)
 :first activity inside the while loop;
 :second activity inside the while loop;
endwhile (no)

stop

@enduml

PlantUML version 1.2020.26(Mon Dec 21 12:45:07 EST 2020)
(GPL source distribution)
Java Runtime: OpenJDK Runtime Environment
JVM: OpenJDK 64-Bit Server VM
Default Encoding: UTF-8
Language: en
Country: null
--></g></svg>