<?xml version="1.0" encoding="UTF-8" standalone="no"?><svg xmlns="http://www.w3.org/2000/svg" xmlns:xlink="http://www.w3.org/1999/xlink" contentScriptType="application/ecmascript" contentStyleType="text/css" height="678px" preserveAspectRatio="none" style="width:892px;height:678px;" version="1.1" viewBox="0 0 892 678" width="892px" zoomAndPan="magnify"><defs><filter height="300%" id="f1e6llrkkhu6wf" width="300%" x="-1" y="-1"><feGaussianBlur result="blurOut" stdDeviation="2.0"/><feColorMatrix in="blurOut" result="blurOut2" type="matrix" values="0 0 0 0 0 0 0 0 0 0 0 0 0 0 0 0 0 0 .4 0"/><feOffset dx="4.0" dy="4.0" in="blurOut2" result="blurOut3"/><feBlend in="SourceGraphic" in2="blurOut3" mode="normal"/></filter></defs><g><ellipse cx="404" cy="18" fill="#000000" filter="url(#f1e6llrkkhu6wf)" rx="10" ry="10" style="stroke: none; stroke-width: 1.0;"/><rect fill="#FEFECE" filter="url(#f1e6llrkkhu6wf)" height="64.2344" rx="12.5" ry="12.5" style="stroke: #A80036; stroke-width: 1.5;" width="151" x="328.5" y="89"/><line style="stroke: #A80036; stroke-width: 1.5;" x1="328.5" x2="479.5" y1="115.2969" y2="115.2969"/><text fill="#000000" font-family="sans-serif" font-size="14" lengthAdjust="spacingAndGlyphs" textLength="55" x="376.5" y="106.9951">MyState</text><text fill="#000000" font-family="sans-serif" font-size="12" lengthAdjust="spacingAndGlyphs" textLength="89" x="333.5" y="131.4355">this is a string</text><text fill="#000000" font-family="sans-serif" font-size="12" lengthAdjust="spacingAndGlyphs" textLength="131" x="333.5" y="145.4043">this is another string</text><rect fill="#FEFECE" filter="url(#f1e6llrkkhu6wf)" height="50" rx="12.5" ry="12.5" style="stroke: #A80036; stroke-width: 1.5;" width="101" x="149.5" y="375"/><line style="stroke: #A80036; stroke-width: 1.5;" x1="149.5" x2="250.5" y1="401.2969" y2="401.2969"/><text fill="#000000" font-family="sans-serif" font-size="14" lengthAdjust="spacingAndGlyphs" textLength="81" x="159.5" y="392.9951">WrongState</text><ellipse cx="590" cy="657" fill="none" filter="url(#f1e6llrkkhu6wf)" rx="10" ry="10" style="stroke: #000000; stroke-width: 1.0;"/><ellipse cx="590.5" cy="657.5" fill="#000000" rx="6" ry="6" style="stroke: none; stroke-width: 1.0;"/><path d="M6,364.5 L6,435.0313 A0,0 0 0 0 6,435.0313 L114,435.0313 A0,0 0 0 0 114,435.0313 L114,404 L149.36,400 L114,396 L114,374.5 L104,364.5 L6,364.5 A0,0 0 0 0 6,364.5 " fill="#FBFB77" filter="url(#f1e6llrkkhu6wf)" style="stroke: #A80036; stroke-width: 1.0;"/><path d="M104,364.5 L104,374.5 L114,374.5 L104,364.5 " fill="#FBFB77" style="stroke: #A80036; stroke-width: 1.0;"/><text fill="#000000" font-family="sans-serif" font-size="13" lengthAdjust="spacingAndGlyphs" textLength="62" x="12" y="381.5669">This state</text><text fill="#000000" font-family="sans-serif" font-size="13" lengthAdjust="spacingAndGlyphs" textLength="87" x="12" y="396.6997">is a dead-end</text><text fill="#000000" font-family="sans-serif" font-size="13" lengthAdjust="spacingAndGlyphs" textLength="86" x="12" y="411.8325">and shouldn't</text><text fill="#000000" font-family="sans-serif" font-size="13" lengthAdjust="spacingAndGlyphs" textLength="34" x="12" y="426.9653">exist.</text><rect fill="#FEFECE" filter="url(#f1e6llrkkhu6wf)" height="372.2656" rx="12.5" ry="12.5" style="stroke: #A80036; stroke-width: 1.5;" width="236" x="286" y="214"/><rect fill="#FFFFFF" height="321" rx="12.5" ry="12.5" style="stroke: #FFFFFF; stroke-width: 1.0;" width="230" x="289" y="262.2656"/><line style="stroke: #A80036; stroke-width: 1.5;" x1="286" x2="522" y1="259.2656" y2="259.2656"/><line style="stroke: #A80036; stroke-width: 1.5;" x1="286" x2="522" y1="240.2969" y2="240.2969"/><text fill="#000000" font-family="sans-serif" font-size="14" lengthAdjust="spacingAndGlyphs" textLength="111" x="348.5" y="231.9951">CompositeState</text><text fill="#000000" font-family="sans-serif" font-size="12" lengthAdjust="spacingAndGlyphs" textLength="113" x="291" y="251.4355">yet another string</text><ellipse cx="347.06" cy="282.2656" fill="#000000" filter="url(#f1e6llrkkhu6wf)" rx="10" ry="10" style="stroke: none; stroke-width: 1.0;"/><rect fill="#FEFECE" filter="url(#f1e6llrkkhu6wf)" height="50" rx="12.5" ry="12.5" style="stroke: #A80036; stroke-width: 1.5;" width="65" x="314.56" y="345.2656"/><line style="stroke: #A80036; stroke-width: 1.5;" x1="314.56" x2="379.56" y1="371.5625" y2="371.5625"/><text fill="#000000" font-family="sans-serif" font-size="14" lengthAdjust="spacingAndGlyphs" textLength="45" x="324.56" y="363.2607">StateA</text><rect fill="#FEFECE" filter="url(#f1e6llrkkhu6wf)" height="50" rx="12.5" ry="12.5" style="stroke: #A80036; stroke-width: 1.5;" width="66" x="314.06" y="448.2656"/><line style="stroke: #A80036; stroke-width: 1.5;" x1="314.06" x2="380.06" y1="474.5625" y2="474.5625"/><text fill="#000000" font-family="sans-serif" font-size="14" lengthAdjust="spacingAndGlyphs" textLength="46" x="324.06" y="466.2607">StateB</text><ellipse cx="347.06" cy="561.2656" fill="none" filter="url(#f1e6llrkkhu6wf)" rx="10" ry="10" style="stroke: #000000; stroke-width: 1.0;"/><ellipse cx="347.56" cy="561.7656" fill="#000000" rx="6" ry="6" style="stroke: none; stroke-width: 1.0;"/><!--MD5=[366c61d77d935e273871301f1fef2928]
link *start*CompositeState to StateA--><path d="M347.06,292.4656 C347.06,303.7756 347.06,323.5156 347.06,340.1456 " fill="none" id="*start*CompositeState-&gt;StateA" style="stroke: #A80036; stroke-width: 1.0;"/><polygon fill="#A80036" points="347.06,345.1956,351.06,336.1956,347.06,340.1956,343.06,336.1956,347.06,345.1956" style="stroke: #A80036; stroke-width: 1.0;"/><text fill="#000000" font-family="sans-serif" font-size="13" lengthAdjust="spacingAndGlyphs" textLength="107" x="348.06" y="323.3325">begin something</text><!--MD5=[4da2dfd607d292dc415e916afa67ea92]
link StateA to StateB--><path d="M314.39,392.9956 C308.18,398.7856 302.53,405.6056 299.06,413.2656 C293.42,425.6856 300.15,437.6956 310.18,447.5956 " fill="none" id="StateA-&gt;StateB" style="stroke: #A80036; stroke-width: 1.0;"/><polygon fill="#A80036" points="314.01,451.1456,310.1421,442.0881,310.3481,447.7412,304.695,447.9472,314.01,451.1456" style="stroke: #A80036; stroke-width: 1.0;"/><text fill="#000000" font-family="sans-serif" font-size="13" lengthAdjust="spacingAndGlyphs" textLength="73" x="300.06" y="426.3325">from A to B</text><!--MD5=[2557285356c8987436c1238379ffca10]
link StateB to StateA--><path d="M365.85,448.0956 C369.23,442.5256 372.25,436.4156 374.06,430.2656 C377.06,420.0456 374.16,409.3356 369.31,399.8756 " fill="none" id="StateB-&gt;StateA" style="stroke: #A80036; stroke-width: 1.0;"/><polygon fill="#A80036" points="366.79,395.3456,367.6642,405.1556,369.2182,399.7164,374.6574,401.2705,366.79,395.3456" style="stroke: #A80036; stroke-width: 1.0;"/><text fill="#000000" font-family="sans-serif" font-size="13" lengthAdjust="spacingAndGlyphs" textLength="107" x="376.06" y="426.3325">from B back to A</text><!--MD5=[3e15d4920b5c80fb59f4905b04abeeaf]
link StateB to *end*CompositeState--><path d="M347.06,498.6756 C347.06,513.9756 347.06,533.1556 347.06,546.0056 " fill="none" id="StateB-&gt;*end*CompositeState" style="stroke: #A80036; stroke-width: 1.0;"/><polygon fill="#A80036" points="347.06,551.1056,351.06,542.1056,347.06,546.1056,343.06,542.1056,347.06,551.1056" style="stroke: #A80036; stroke-width: 1.0;"/><text fill="#000000" font-family="sans-serif" font-size="13" lengthAdjust="spacingAndGlyphs" textLength="36" x="348.06" y="529.3325">end it</text><rect fill="#FEFECE" filter="url(#f1e6llrkkhu6wf)" height="370.2969" rx="12.5" ry="12.5" style="stroke: #A80036; stroke-width: 1.5;" width="205" x="675.5" y="215"/><rect fill="#FFFFFF" height="338" rx="12.5" ry="12.5" style="stroke: #FFFFFF; stroke-width: 1.0;" width="199" x="678.5" y="244.2969"/><line style="stroke: #A80036; stroke-width: 1.5;" x1="675.5" x2="880.5" y1="241.2969" y2="241.2969"/><text fill="#000000" font-family="sans-serif" font-size="14" lengthAdjust="spacingAndGlyphs" textLength="166" x="695" y="232.9951">AnotherCompositeState</text><ellipse cx="758" cy="264.2969" fill="#000000" filter="url(#f1e6llrkkhu6wf)" rx="10" ry="10" style="stroke: none; stroke-width: 1.0;"/><rect fill="#FEFECE" filter="url(#f1e6llrkkhu6wf)" height="50" rx="12.5" ry="12.5" style="stroke: #A80036; stroke-width: 1.5;" width="143" x="686.5" y="310.2969"/><line style="stroke: #A80036; stroke-width: 1.5;" x1="686.5" x2="829.5" y1="336.5938" y2="336.5938"/><text fill="#000000" font-family="sans-serif" font-size="14" lengthAdjust="spacingAndGlyphs" textLength="123" x="696.5" y="328.292">ConcurrentStateA</text><!--MD5=[5bc961721a13f14ddda5153267540c8d]
link *start*AnotherCompositeState to ConcurrentStateA--><path d="M758,274.3169 C758,282.1769 758,294.0169 758,305.1069 " fill="none" id="*start*AnotherCompositeState-&gt;ConcurrentStateA" style="stroke: #A80036; stroke-width: 1.0;"/><polygon fill="#A80036" points="758,310.1269,762,301.1269,758,305.1269,754,301.1269,758,310.1269" style="stroke: #A80036; stroke-width: 1.0;"/><!--MD5=[b61898343f60f77c78e47760b1408227]
link ConcurrentStateA to ConcurrentStateA--><path d="M829.63,323.3869 C840.29,325.2469 847.5,329.2169 847.5,335.2969 C847.5,340.3369 842.55,343.9269 834.8,346.0569 " fill="none" id="ConcurrentStateA-&gt;ConcurrentStateA" style="stroke: #A80036; stroke-width: 1.0;"/><polygon fill="#A80036" points="829.63,347.2069,839.2834,349.1592,834.5109,346.1222,837.548,341.3498,829.63,347.2069" style="stroke: #A80036; stroke-width: 1.0;"/><line style="stroke: #A80036; stroke-width: 1.5; stroke-dasharray: 8.0,10.0;" x1="680.5" x2="873.5" y1="370.2969" y2="370.2969"/><ellipse cx="758.5" cy="388.2969" fill="#000000" filter="url(#f1e6llrkkhu6wf)" rx="10" ry="10" style="stroke: none; stroke-width: 1.0;"/><rect fill="#FEFECE" filter="url(#f1e6llrkkhu6wf)" height="50" rx="12.5" ry="12.5" style="stroke: #A80036; stroke-width: 1.5;" width="144" x="686.5" y="434.2969"/><line style="stroke: #A80036; stroke-width: 1.5;" x1="686.5" x2="830.5" y1="460.5938" y2="460.5938"/><text fill="#000000" font-family="sans-serif" font-size="14" lengthAdjust="spacingAndGlyphs" textLength="124" x="696.5" y="452.292">ConcurrentStateB</text><rect fill="#FEFECE" filter="url(#f1e6llrkkhu6wf)" height="50" rx="12.5" ry="12.5" style="stroke: #A80036; stroke-width: 1.5;" width="144" x="686.5" y="520.2969"/><line style="stroke: #A80036; stroke-width: 1.5;" x1="686.5" x2="830.5" y1="546.5938" y2="546.5938"/><text fill="#000000" font-family="sans-serif" font-size="14" lengthAdjust="spacingAndGlyphs" textLength="124" x="696.5" y="538.292">ConcurrentStateC</text><!--MD5=[0b9ed4d30a3f61d4ffe5c38ba9980475]
link *start*CONC29 to ConcurrentStateB--><path d="M758.5,398.3169 C758.5,406.1769 758.5,418.0169 758.5,429.1069 " fill="none" id="*start*CONC29-&gt;ConcurrentStateB" style="stroke: #A80036; stroke-width: 1.0;"/><polygon fill="#A80036" points="758.5,434.1269,762.5,425.1269,758.5,429.1269,754.5,425.1269,758.5,434.1269" style="stroke: #A80036; stroke-width: 1.0;"/><!--MD5=[9d2d0da59745a3c83f26aaaebfe8c2d0]
link ConcurrentStateB to ConcurrentStateC--><path d="M752.31,484.5969 C751.67,494.0869 751.58,505.0469 752.03,514.9769 " fill="none" id="ConcurrentStateB-&gt;ConcurrentStateC" style="stroke: #A80036; stroke-width: 1.0;"/><polygon fill="#A80036" points="752.32,520.0569,755.8248,510.8527,752.0482,515.0643,747.8367,511.2876,752.32,520.0569" style="stroke: #A80036; stroke-width: 1.0;"/><!--MD5=[7b38331476157d475ce57959bd41c82f]
link ConcurrentStateC to ConcurrentStateB--><path d="M764.68,520.0569 C765.33,510.5669 765.42,499.6069 764.97,489.6769 " fill="none" id="ConcurrentStateC-&gt;ConcurrentStateB" style="stroke: #A80036; stroke-width: 1.0;"/><polygon fill="#A80036" points="764.69,484.5969,761.2115,493.811,764.9761,489.5887,769.1984,493.3533,764.69,484.5969" style="stroke: #A80036; stroke-width: 1.0;"/><!--MD5=[a73ed115cb3c9d752e917e82534233b9]
link *start to MyState--><path d="M404,28.32 C404,40.78 404,63.6 404,83.35 " fill="none" id="*start-&gt;MyState" style="stroke: #A80036; stroke-width: 1.0;"/><polygon fill="#A80036" points="404,88.56,408,79.56,404,83.56,400,79.56,404,88.56" style="stroke: #A80036; stroke-width: 1.0;"/><!--MD5=[da8727e4fedaadaa88fe35ff4fcc17e3]
link MyState to CompositeState--><path d="M404,153.24 C404,168.24 404,187.56 404,208.77 " fill="none" id="MyState-&gt;CompositeState" style="stroke: #A80036; stroke-width: 1.0;"/><polygon fill="#A80036" points="404,213.91,408,204.91,404,208.91,400,204.91,404,213.91" style="stroke: #A80036; stroke-width: 1.0;"/><!--MD5=[8975204cb4f636cf42c1555656978748]
link MyState to AnotherCompositeState--><path d="M479.51,135.9 C533.67,148.88 605.95,172.64 658,214 C662.68,217.72 667.24,221.68 671.67,225.83 " fill="none" id="MyState-&gt;AnotherCompositeState" style="stroke: #A80036; stroke-width: 1.0;"/><polygon fill="#A80036" points="675.37,229.36,671.6311,220.2484,671.7568,225.9039,666.1013,226.0296,675.37,229.36" style="stroke: #A80036; stroke-width: 1.0;"/><!--MD5=[d4ea00f6e3dbd216fb5c9174f91d6f3a]
link MyState to WrongState--><path d="M341.3,153.13 C315.66,168.48 287.5,189.08 268,214 C230.96,261.32 212.74,330.78 204.95,369.73 " fill="none" id="MyState-&gt;WrongState" style="stroke: #A80036; stroke-width: 1.0;"/><polygon fill="#A80036" points="203.96,374.79,209.6068,366.7207,204.9159,369.8822,201.7544,365.1913,203.96,374.79" style="stroke: #A80036; stroke-width: 1.0;"/><!--MD5=[667a7a01fcd3900c057a3becd8c3637b]
link CompositeState to CompositeState--><path d="M522.04,362.03 C542.66,367.09 557,379.75 557,400 C557,418.51 545.02,430.67 527.21,436.5 " fill="none" id="CompositeState-&gt;CompositeState" style="stroke: #A80036; stroke-width: 1.0;"/><polygon fill="#A80036" points="522.04,437.97,531.7926,439.3436,526.8476,436.5964,529.5948,431.6514,522.04,437.97" style="stroke: #A80036; stroke-width: 1.0;"/><text fill="#000000" font-family="sans-serif" font-size="13" lengthAdjust="spacingAndGlyphs" textLength="88" x="563" y="404.5669">\ this is a loop</text><!--MD5=[025dfbca5fce38f1175b7cb5f80828c1]
link AnotherCompositeState to *end--><path d="M675.43,563.25 C669.68,571.04 663.85,578.67 658,586 C639.81,608.81 615.33,632.6 601.24,645.74 " fill="none" id="AnotherCompositeState-&gt;*end" style="stroke: #A80036; stroke-width: 1.0;"/><polygon fill="#A80036" points="597.23,649.46,606.5579,646.2992,600.9057,646.0704,601.1345,640.4182,597.23,649.46" style="stroke: #A80036; stroke-width: 1.0;"/><!--MD5=[32869a8d2f9ede59201a16cc716f824f]
link CompositeState to *end--><path d="M522.06,562.86 C547.29,597.44 569.86,628.38 581.55,644.42 " fill="none" id="CompositeState-&gt;*end" style="stroke: #A80036; stroke-width: 1.0;"/><polygon fill="#A80036" points="584.56,648.54,582.4974,638.9096,581.6174,644.4976,576.0294,643.6176,584.56,648.54" style="stroke: #A80036; stroke-width: 1.0;"/><!--MD5=[52bd6a2f8f601a4fe3d8319c6cce5d7f]
@startuml

[*] - -> MyState
MyState - -> CompositeState
MyState - -> AnotherCompositeState
MyState - -> WrongState

CompositeState - -> CompositeState : \ this is a loop
AnotherCompositeState - -> [*]
CompositeState - -> [*]

MyState : this is a string
MyState : this is another string

state CompositeState {

[*] - -> StateA : begin something
StateA - -> StateB : from A to B
StateB - -> StateA : from B back to A
StateB - -> [*] : end it

CompositeState : yet another string
}

state AnotherCompositeState {

[*] - -> ConcurrentStateA
ConcurrentStateA - -> ConcurrentStateA

- -

[*] - -> ConcurrentStateB
ConcurrentStateB - -> ConcurrentStateC
ConcurrentStateC - -> ConcurrentStateB
}

note left of WrongState
  This state
  is a dead-end
  and shouldn't
  exist.
end note

@enduml

PlantUML version 1.2020.06(Sun Apr 05 12:38:32 GMT 2020)
(GPL source distribution)
Java Runtime: OpenJDK Runtime Environment
JVM: OpenJDK 64-Bit Server VM
Java Version: 1.8.0_242-b08
Operating System: Linux
Default Encoding: UTF-8
Language: en
Country: US
--></g></svg>