<?xml version="1.0" encoding="UTF-8" standalone="no"?><svg xmlns="http://www.w3.org/2000/svg" xmlns:xlink="http://www.w3.org/1999/xlink" contentScriptType="application/ecmascript" contentStyleType="text/css" height="446px" preserveAspectRatio="none" style="width:844px;height:446px;" version="1.1" viewBox="0 0 844 446" width="844px" zoomAndPan="magnify"><defs><filter height="300%" id="f19d1pl2vhrsiw" width="300%" x="-1" y="-1"><feGaussianBlur result="blurOut" stdDeviation="2.0"/><feColorMatrix in="blurOut" result="blurOut2" type="matrix" values="0 0 0 0 0 0 0 0 0 0 0 0 0 0 0 0 0 0 .4 0"/><feOffset dx="4.0" dy="4.0" in="blurOut2" result="blurOut3"/><feBlend in="SourceGraphic" in2="blurOut3" mode="normal"/></filter></defs><g><!--MD5=[1a7c909d8ac09fc782f5eb680a232d5b]
cluster Classic Collections--><polygon fill="#FFFFFF" filter="url(#f19d1pl2vhrsiw)" points="22,32,175,32,182,54.2969,332,54.2969,332,434,22,434,22,32" style="stroke: #000000; stroke-width: 1.5;"/><line style="stroke: #000000; stroke-width: 1.5;" x1="22" x2="182" y1="54.2969" y2="54.2969"/><text fill="#000000" font-family="sans-serif" font-size="14" font-weight="bold" lengthAdjust="spacingAndGlyphs" textLength="147" x="26" y="46.9951">Classic Collections</text><!--MD5=[b4fa10df80476353258f72a232547d63]
class AbstractList--><rect fill="#F8F8F8" filter="url(#f19d1pl2vhrsiw)" height="28" id="AbstractList" style="stroke: #383838; stroke-width: 1.5;" width="101" x="214.5" y="237"/><ellipse cx="227.5" cy="251" fill="#CDCDCD" rx="9" ry="9" style="stroke: #383838; stroke-width: 1.0;"/><path d="M226.9063,248.9688 L226.3594,251.3594 L227.4531,251.3594 L226.9063,248.9688 Z M226.2031,247.9219 L227.6094,247.9219 L229.1875,253.75 L228.0313,253.75 L227.6719,252.3125 L226.1406,252.3125 L225.7813,253.75 L224.625,253.75 L226.2031,247.9219 Z "/><text fill="#000000" font-family="sans-serif" font-size="12" font-style="italic" lengthAdjust="spacingAndGlyphs" textLength="73" x="239.5" y="255.1543">AbstractList</text><!--MD5=[8e34b16d8d8f96f4a11290cd523ed859]
class AbstractCollection--><rect fill="#F8F8F8" filter="url(#f19d1pl2vhrsiw)" height="28" id="AbstractCollection" style="stroke: #383838; stroke-width: 1.5;" width="141" x="38.5" y="237"/><ellipse cx="51.5" cy="251" fill="#CDCDCD" rx="9" ry="9" style="stroke: #383838; stroke-width: 1.0;"/><path d="M50.9063,248.9688 L50.3594,251.3594 L51.4531,251.3594 L50.9063,248.9688 Z M50.2031,247.9219 L51.6094,247.9219 L53.1875,253.75 L52.0313,253.75 L51.6719,252.3125 L50.1406,252.3125 L49.7813,253.75 L48.625,253.75 L50.2031,247.9219 Z "/><text fill="#000000" font-family="sans-serif" font-size="12" font-style="italic" lengthAdjust="spacingAndGlyphs" textLength="113" x="63.5" y="255.1543">AbstractCollection</text><!--MD5=[3d4177ac58b4411586d067f34e84928f]
class List--><rect fill="#F8F8F8" filter="url(#f19d1pl2vhrsiw)" height="28" id="List" style="stroke: #383838; stroke-width: 1.5;" width="49" x="227.5" y="67"/><ellipse cx="240.5" cy="81" fill="#B1B1B1" rx="9" ry="9" style="stroke: #383838; stroke-width: 1.0;"/><path d="M238.6719,79.1875 L238.6719,78.1719 L242.1406,78.1719 L242.1406,79.1875 L240.9844,79.1875 L240.9844,82.9844 L242.1406,82.9844 L242.1406,84 L238.6719,84 L238.6719,82.9844 L239.8281,82.9844 L239.8281,79.1875 L238.6719,79.1875 Z "/><text fill="#000000" font-family="sans-serif" font-size="12" font-style="italic" lengthAdjust="spacingAndGlyphs" textLength="21" x="252.5" y="85.1543">List</text><!--MD5=[c160724f8e3bb89ca8141a12554ac2e3]
class Collection--><rect fill="#F8F8F8" filter="url(#f19d1pl2vhrsiw)" height="28" id="Collection" style="stroke: #383838; stroke-width: 1.5;" width="89" x="77.5" y="67"/><ellipse cx="90.5" cy="81" fill="#B1B1B1" rx="9" ry="9" style="stroke: #383838; stroke-width: 1.0;"/><path d="M88.6719,79.1875 L88.6719,78.1719 L92.1406,78.1719 L92.1406,79.1875 L90.9844,79.1875 L90.9844,82.9844 L92.1406,82.9844 L92.1406,84 L88.6719,84 L88.6719,82.9844 L89.8281,82.9844 L89.8281,79.1875 L88.6719,79.1875 Z "/><text fill="#000000" font-family="sans-serif" font-size="12" font-style="italic" lengthAdjust="spacingAndGlyphs" textLength="61" x="102.5" y="85.1543">Collection</text><!--MD5=[ab8871ed637f40707b866ba6597734bc]
class ArrayList--><rect fill="#F8F8F8" filter="url(#f19d1pl2vhrsiw)" height="69.6094" id="ArrayList" style="stroke: #383838; stroke-width: 1.5;" width="132" x="184" y="348"/><ellipse cx="219.95" cy="362" fill="#C2C2C2" rx="9" ry="9" style="stroke: #383838; stroke-width: 1.0;"/><path d="M220.6688,364.8281 Q220.4031,364.9688 220.0906,365.0313 Q219.7938,365.1094 219.4656,365.1094 Q218.2938,365.1094 217.6688,364.3438 Q217.0438,363.5625 217.0438,362.0938 Q217.0438,360.6094 217.6688,359.8438 Q218.2938,359.0625 219.4656,359.0625 Q219.7938,359.0625 220.0906,359.1406 Q220.4031,359.2031 220.6688,359.3438 L220.6688,360.625 Q220.3719,360.3438 220.0906,360.2188 Q219.825,360.0938 219.5281,360.0938 Q218.8875,360.0938 218.5594,360.5938 Q218.2469,361.0938 218.2469,362.0938 Q218.2469,363.0781 218.5594,363.5781 Q218.8875,364.0781 219.5281,364.0781 Q219.825,364.0781 220.0906,363.9531 Q220.3719,363.8281 220.6688,363.5469 L220.6688,364.8281 Z "/><text fill="#000000" font-family="sans-serif" font-size="12" lengthAdjust="spacingAndGlyphs" textLength="53" x="237.05" y="366.1543">ArrayList</text><line style="stroke: #383838; stroke-width: 1.5;" x1="185" x2="315" y1="376" y2="376"/><text fill="#000000" font-family="sans-serif" font-size="11" lengthAdjust="spacingAndGlyphs" textLength="120" x="190" y="390.2104">Object[] elementData</text><line style="stroke: #383838; stroke-width: 1.5;" x1="185" x2="315" y1="396.8047" y2="396.8047"/><text fill="#000000" font-family="sans-serif" font-size="11" lengthAdjust="spacingAndGlyphs" textLength="30" x="190" y="411.0151">size()</text><!--MD5=[fb3a36e6acd69457a12dcaa984c78192]
class AbstractClass--><rect fill="#F8F8F8" filter="url(#f19d1pl2vhrsiw)" height="146.4375" id="AbstractClass" style="stroke: #383838; stroke-width: 1.5;" width="156" x="545" y="8"/><ellipse cx="578.25" cy="22" fill="#CDCDCD" rx="9" ry="9" style="stroke: #383838; stroke-width: 1.0;"/><path d="M577.6563,19.9688 L577.1094,22.3594 L578.2031,22.3594 L577.6563,19.9688 Z M576.9531,18.9219 L578.3594,18.9219 L579.9375,24.75 L578.7813,24.75 L578.4219,23.3125 L576.8906,23.3125 L576.5313,24.75 L575.375,24.75 L576.9531,18.9219 Z "/><text fill="#000000" font-family="sans-serif" font-size="12" font-style="italic" lengthAdjust="spacingAndGlyphs" textLength="83" x="594.75" y="26.1543">AbstractClass</text><line style="stroke: #383838; stroke-width: 1.5;" x1="546" x2="700" y1="36" y2="36"/><text fill="#000000" font-family="sans-serif" font-size="11" lengthAdjust="spacingAndGlyphs" textLength="69" x="551" y="50.2104">-privateField</text><text fill="#000000" font-family="sans-serif" font-size="11" lengthAdjust="spacingAndGlyphs" textLength="68" x="551" y="63.0151">+publicField</text><text fill="#000000" font-family="sans-serif" font-size="11" lengthAdjust="spacingAndGlyphs" textLength="89" x="551" y="75.8198">#protectedField</text><text fill="#000000" font-family="sans-serif" font-size="11" lengthAdjust="spacingAndGlyphs" textLength="121" x="551" y="88.6245">~packagePrivateField</text><line style="stroke: #383838; stroke-width: 1.5;" x1="546" x2="700" y1="95.2188" y2="95.2188"/><text fill="#000000" font-family="sans-serif" font-size="11" lengthAdjust="spacingAndGlyphs" textLength="92" x="551" y="109.4292">-privateMethod()</text><text fill="#000000" font-family="sans-serif" font-size="11" lengthAdjust="spacingAndGlyphs" textLength="91" x="551" y="122.2339">+publicMethod()</text><text fill="#000000" font-family="sans-serif" font-size="11" lengthAdjust="spacingAndGlyphs" textLength="112" x="551" y="135.0386">#protectedMethod()</text><text fill="#000000" font-family="sans-serif" font-size="11" lengthAdjust="spacingAndGlyphs" textLength="144" x="551" y="147.8433">~packagePrivateMethod()</text><!--MD5=[c54ba4f61d01a424743e5a1fa0f9e38e]
class Dummy--><rect fill="#F8F8F8" filter="url(#f19d1pl2vhrsiw)" height="69.6094" id="Dummy" style="stroke: #383838; stroke-width: 1.5;" width="97" x="736.5" y="46"/><ellipse cx="760.3" cy="60" fill="#C2C2C2" rx="9" ry="9" style="stroke: #383838; stroke-width: 1.0;"/><path d="M761.0188,62.8281 Q760.7531,62.9688 760.4406,63.0313 Q760.1438,63.1094 759.8156,63.1094 Q758.6438,63.1094 758.0188,62.3438 Q757.3938,61.5625 757.3938,60.0938 Q757.3938,58.6094 758.0188,57.8438 Q758.6438,57.0625 759.8156,57.0625 Q760.1438,57.0625 760.4406,57.1406 Q760.7531,57.2031 761.0188,57.3438 L761.0188,58.625 Q760.7219,58.3438 760.4406,58.2188 Q760.175,58.0938 759.8781,58.0938 Q759.2375,58.0938 758.9094,58.5938 Q758.5969,59.0938 758.5969,60.0938 Q758.5969,61.0781 758.9094,61.5781 Q759.2375,62.0781 759.8781,62.0781 Q760.175,62.0781 760.4406,61.9531 Q760.7219,61.8281 761.0188,61.5469 L761.0188,62.8281 Z "/><text fill="#000000" font-family="sans-serif" font-size="12" lengthAdjust="spacingAndGlyphs" textLength="45" x="774.7" y="64.1543">Dummy</text><line style="stroke: #383838; stroke-width: 1.5;" x1="737.5" x2="832.5" y1="74" y2="74"/><text fill="#000000" font-family="sans-serif" font-size="11" lengthAdjust="spacingAndGlyphs" text-decoration="underline" textLength="42" x="742.5" y="88.2104">staticID</text><line style="stroke: #383838; stroke-width: 1.5;" x1="737.5" x2="832.5" y1="94.8047" y2="94.8047"/><text fill="#000000" font-family="sans-serif" font-size="11" font-style="italic" lengthAdjust="spacingAndGlyphs" textLength="85" x="742.5" y="109.0151">void methods()</text><!--MD5=[bd6e5d4dd3d7814cbdc3148d3ed1ec4b]
class Flight--><rect fill="#F8F8F8" filter="url(#f19d1pl2vhrsiw)" height="61.6094" id="Flight" style="stroke: #383838; stroke-width: 1.5;" width="137" x="554.5" y="220"/><ellipse cx="602.25" cy="234" fill="#C2C2C2" rx="9" ry="9" style="stroke: #383838; stroke-width: 1.0;"/><path d="M602.9688,236.8281 Q602.7031,236.9688 602.3906,237.0313 Q602.0938,237.1094 601.7656,237.1094 Q600.5938,237.1094 599.9688,236.3438 Q599.3438,235.5625 599.3438,234.0938 Q599.3438,232.6094 599.9688,231.8438 Q600.5938,231.0625 601.7656,231.0625 Q602.0938,231.0625 602.3906,231.1406 Q602.7031,231.2031 602.9688,231.3438 L602.9688,232.625 Q602.6719,232.3438 602.3906,232.2188 Q602.125,232.0938 601.8281,232.0938 Q601.1875,232.0938 600.8594,232.5938 Q600.5469,233.0938 600.5469,234.0938 Q600.5469,235.0781 600.8594,235.5781 Q601.1875,236.0781 601.8281,236.0781 Q602.125,236.0781 602.3906,235.9531 Q602.6719,235.8281 602.9688,235.5469 L602.9688,236.8281 Z "/><text fill="#000000" font-family="sans-serif" font-size="12" lengthAdjust="spacingAndGlyphs" textLength="34" x="619.75" y="238.1543">Flight</text><line style="stroke: #383838; stroke-width: 1.5;" x1="555.5" x2="690.5" y1="248" y2="248"/><text fill="#000000" font-family="sans-serif" font-size="11" lengthAdjust="spacingAndGlyphs" textLength="125" x="560.5" y="262.2104">flightNumber : Integer</text><text fill="#000000" font-family="sans-serif" font-size="11" lengthAdjust="spacingAndGlyphs" textLength="122" x="560.5" y="275.0151">departureTime : Date</text><!--MD5=[15b68e006199004da79ea2a4d117d8e9]
class TimeUnit--><rect fill="#F8F8F8" filter="url(#f19d1pl2vhrsiw)" height="74.4141" id="TimeUnit" style="stroke: #383838; stroke-width: 1.5;" width="82" x="727" y="214"/><ellipse cx="740" cy="228" fill="#ABABAB" rx="9" ry="9" style="stroke: #383838; stroke-width: 1.0;"/><path d="M741.2969,231 L737.6563,231 L737.6563,225.1719 L741.2969,225.1719 L741.2969,226.1875 L738.8125,226.1875 L738.8125,227.4375 L741.0625,227.4375 L741.0625,228.4531 L738.8125,228.4531 L738.8125,229.9844 L741.2969,229.9844 L741.2969,231 Z "/><text fill="#000000" font-family="sans-serif" font-size="12" lengthAdjust="spacingAndGlyphs" textLength="54" x="752" y="232.1543">TimeUnit</text><line style="stroke: #383838; stroke-width: 1.5;" x1="728" x2="808" y1="242" y2="242"/><text fill="#000000" font-family="sans-serif" font-size="11" lengthAdjust="spacingAndGlyphs" textLength="30" x="733" y="256.2104">DAYS</text><text fill="#000000" font-family="sans-serif" font-size="11" lengthAdjust="spacingAndGlyphs" textLength="40" x="733" y="269.0151">HOURS</text><text fill="#000000" font-family="sans-serif" font-size="11" lengthAdjust="spacingAndGlyphs" textLength="50" x="733" y="281.8198">MINUTES</text><!--MD5=[d6181cb537bdc20c0a3007a98a56832d]
class Student--><rect fill="#F8F8F8" filter="url(#f19d1pl2vhrsiw)" height="48.8047" id="Student" style="stroke: #383838; stroke-width: 1.5;" width="78" x="348" y="56.5"/><ellipse cx="361" cy="70.5" fill="#C2C2C2" rx="9" ry="9" style="stroke: #383838; stroke-width: 1.0;"/><path d="M361.7188,73.3281 Q361.4531,73.4688 361.1406,73.5313 Q360.8438,73.6094 360.5156,73.6094 Q359.3438,73.6094 358.7188,72.8438 Q358.0938,72.0625 358.0938,70.5938 Q358.0938,69.1094 358.7188,68.3438 Q359.3438,67.5625 360.5156,67.5625 Q360.8438,67.5625 361.1406,67.6406 Q361.4531,67.7031 361.7188,67.8438 L361.7188,69.125 Q361.4219,68.8438 361.1406,68.7188 Q360.875,68.5938 360.5781,68.5938 Q359.9375,68.5938 359.6094,69.0938 Q359.2969,69.5938 359.2969,70.5938 Q359.2969,71.5781 359.6094,72.0781 Q359.9375,72.5781 360.5781,72.5781 Q360.875,72.5781 361.1406,72.4531 Q361.4219,72.3281 361.7188,72.0469 L361.7188,73.3281 Z "/><text fill="#000000" font-family="sans-serif" font-size="12" lengthAdjust="spacingAndGlyphs" textLength="50" x="373" y="74.6543">Student</text><line style="stroke: #383838; stroke-width: 1.5;" x1="349" x2="425" y1="84.5" y2="84.5"/><text fill="#000000" font-family="sans-serif" font-size="11" lengthAdjust="spacingAndGlyphs" textLength="33" x="354" y="98.7104">Name</text><!--MD5=[4066b0363c5a91ff3b6e03e0428953a9]
class Course--><rect fill="#F8F8F8" filter="url(#f19d1pl2vhrsiw)" height="28" id="Course" style="stroke: #383838; stroke-width: 1.5;" width="72" x="351" y="369"/><ellipse cx="364" cy="383" fill="#C2C2C2" rx="9" ry="9" style="stroke: #383838; stroke-width: 1.0;"/><path d="M364.7188,385.8281 Q364.4531,385.9688 364.1406,386.0313 Q363.8438,386.1094 363.5156,386.1094 Q362.3438,386.1094 361.7188,385.3438 Q361.0938,384.5625 361.0938,383.0938 Q361.0938,381.6094 361.7188,380.8438 Q362.3438,380.0625 363.5156,380.0625 Q363.8438,380.0625 364.1406,380.1406 Q364.4531,380.2031 364.7188,380.3438 L364.7188,381.625 Q364.4219,381.3438 364.1406,381.2188 Q363.875,381.0938 363.5781,381.0938 Q362.9375,381.0938 362.6094,381.5938 Q362.2969,382.0938 362.2969,383.0938 Q362.2969,384.0781 362.6094,384.5781 Q362.9375,385.0781 363.5781,385.0781 Q363.875,385.0781 364.1406,384.9531 Q364.4219,384.8281 364.7188,384.5469 L364.7188,385.8281 Z "/><text fill="#000000" font-family="sans-serif" font-size="12" lengthAdjust="spacingAndGlyphs" textLength="44" x="376" y="387.1543">Course</text><!--MD5=[a5e519b5507f5347c192db89cdb5223a]
class Enrollment--><rect fill="#F8F8F8" filter="url(#f19d1pl2vhrsiw)" height="61.6094" id="Enrollment" style="stroke: #383838; stroke-width: 1.5;" width="95" x="424.5" y="220"/><ellipse cx="437.5" cy="234" fill="#C2C2C2" rx="9" ry="9" style="stroke: #383838; stroke-width: 1.0;"/><path d="M438.2188,236.8281 Q437.9531,236.9688 437.6406,237.0313 Q437.3438,237.1094 437.0156,237.1094 Q435.8438,237.1094 435.2188,236.3438 Q434.5938,235.5625 434.5938,234.0938 Q434.5938,232.6094 435.2188,231.8438 Q435.8438,231.0625 437.0156,231.0625 Q437.3438,231.0625 437.6406,231.1406 Q437.9531,231.2031 438.2188,231.3438 L438.2188,232.625 Q437.9219,232.3438 437.6406,232.2188 Q437.375,232.0938 437.0781,232.0938 Q436.4375,232.0938 436.1094,232.5938 Q435.7969,233.0938 435.7969,234.0938 Q435.7969,235.0781 436.1094,235.5781 Q436.4375,236.0781 437.0781,236.0781 Q437.375,236.0781 437.6406,235.9531 Q437.9219,235.8281 438.2188,235.5469 L438.2188,236.8281 Z "/><text fill="#000000" font-family="sans-serif" font-size="12" lengthAdjust="spacingAndGlyphs" textLength="67" x="449.5" y="238.1543">Enrollment</text><line style="stroke: #383838; stroke-width: 1.5;" x1="425.5" x2="518.5" y1="248" y2="248"/><text fill="#000000" font-family="sans-serif" font-size="11" lengthAdjust="spacingAndGlyphs" textLength="34" x="430.5" y="262.2104">drop()</text><text fill="#000000" font-family="sans-serif" font-size="11" lengthAdjust="spacingAndGlyphs" textLength="44" x="430.5" y="275.0151">cancel()</text><ellipse cx="387" cy="251" fill="#000000" rx="2" ry="2" style="stroke: none; stroke-width: 1.0;"/><!--MD5=[00308d07b6a5721fb0cf5861877e6652]
reverse link List to AbstractList--><path d="M254.58,115.37 C257.46,152.6 261.98,210.98 263.98,236.88 " fill="none" id="List&lt;-AbstractList" style="stroke: #383838; stroke-width: 1.0;"/><polygon fill="none" points="247.58,115.66,253.02,95.18,261.54,114.58,247.58,115.66" style="stroke: #383838; stroke-width: 1.0;"/><!--MD5=[1822909749df1453bdd84de7a60a3406]
reverse link Collection to AbstractCollection--><path d="M119.42,115.37 C116.54,152.6 112.02,210.98 110.02,236.88 " fill="none" id="Collection&lt;-AbstractCollection" style="stroke: #383838; stroke-width: 1.0;"/><polygon fill="none" points="112.46,114.58,120.98,95.18,126.42,115.66,112.46,114.58" style="stroke: #383838; stroke-width: 1.0;"/><!--MD5=[0159284274f96a472eb2618ad803aaca]
reverse link Collection to List--><path d="M187.06,81 C200.49,81 213.91,81 227.34,81 " fill="none" id="Collection&lt;-List" style="stroke: #383838; stroke-width: 1.0;"/><polygon fill="none" points="186.69,88,166.69,81,186.69,74,186.69,88" style="stroke: #383838; stroke-width: 1.0;"/><!--MD5=[7a3a52e8f65ef1a8d8d29530ea5cd870]
reverse link AbstractCollection to AbstractList--><path d="M199.72,251 C204.6,251 209.47,251 214.35,251 " fill="none" id="AbstractCollection&lt;-AbstractList" style="stroke: #383838; stroke-width: 1.0;"/><polygon fill="none" points="199.69,258,179.69,251,199.69,244,199.69,258" style="stroke: #383838; stroke-width: 1.0;"/><!--MD5=[40e4bb1af59cca28d4643aaff05088cc]
reverse link AbstractList to ArrayList--><path d="M261.14,285.42 C258.94,304.55 256.17,328.52 253.95,347.79 " fill="none" id="AbstractList&lt;-ArrayList" style="stroke: #383838; stroke-width: 1.0;"/><polygon fill="none" points="254.2,284.49,263.45,265.42,268.11,286.09,254.2,284.49" style="stroke: #383838; stroke-width: 1.0;"/><!--MD5=[8aa5d3dcf9aa79d4b8cd6da3b948105f]
link Student to apoint21--><path d="M387,105.71 C387,149.13 387,237.95 387,248.89 " fill="none" id="Student-apoint21" style="stroke: #383838; stroke-width: 1.0;"/><text fill="#000000" font-family="sans-serif" font-size="13" lengthAdjust="spacingAndGlyphs" textLength="23" x="361.3406" y="125.2634">0..*</text><!--MD5=[5c552daa116c578465fd4abd382c32f9]
link apoint21 to Course--><path d="M387,253.46 C387,264.73 387,338.25 387,368.76 " fill="none" id="apoint21-Course" style="stroke: #383838; stroke-width: 1.0;"/><text fill="#000000" font-family="sans-serif" font-size="13" lengthAdjust="spacingAndGlyphs" textLength="23" x="359.7594" y="357.8348">1..*</text><!--MD5=[4ac04230e867c7cec6545063a543f32c]
link apoint21 to Enrollment--><path d="M389.32,251 C400.95,251 412.58,251 424.2,251 " fill="none" id="apoint21-Enrollment" style="stroke: #383838; stroke-width: 1.0; stroke-dasharray: 7.0,7.0;"/><!--MD5=[582a5b21e77f91258f1ecc08cba32dfb]
link AbstractClass to Dummy--><!--MD5=[2c06e96899b8fb645700547fa766daa1]
link AbstractClass to Flight--><!--MD5=[9e55a7c694bb97ccd97e800e898d1b45]
link Flight to TimeUnit--><!--MD5=[a52d484fcbe649044fb7febb9032a3d4]
@startuml

skinparam monochrome true
skinparam circledCharacterRadius 9
skinparam circledCharacterFontSize 8
skinparam classAttributeIconSize 0
hide empty members

abstract class AbstractClass {
- privateField
+ publicField
# protectedField
~ packagePrivateField
- privateMethod()
+ publicMethod()
# protectedMethod()
~ packagePrivateMethod()
 }

class Dummy {
{static} staticID
{abstract} void methods()
 }

class Flight {
 flightNumber : Integer
 departureTime : Date
 }

package "Classic Collections" {

 abstract class AbstractList
 abstract AbstractCollection
 interface List
 interface Collection

 List <|- - AbstractList
 Collection <|- - AbstractCollection

 Collection <|- List
 AbstractCollection <|- AbstractList
 AbstractList <|- - ArrayList

 class ArrayList {
   Object[] elementData
   size()
    }
}

enum TimeUnit {
DAYS
HOURS
MINUTES
}


class Student {
Name
}
Student "0..*" - - "1..*" Course
(Student, Course) .. Enrollment

class Enrollment {
drop()
cancel()
}

@enduml

PlantUML version 1.2020.02(Sun Mar 01 05:22:07 EST 2020)
(GPL source distribution)
Java Runtime: OpenJDK Runtime Environment
JVM: OpenJDK 64-Bit Server VM
Java Version: 11.0.27+6-post-Ubuntu-0ubuntu122.04
Operating System: Linux
Default Encoding: UTF-8
Language: en
Country: null
--></g></svg>