<?xml version="1.0" encoding="UTF-8" standalone="no"?><svg xmlns="http://www.w3.org/2000/svg" xmlns:xlink="http://www.w3.org/1999/xlink" contentScriptType="application/ecmascript" contentStyleType="text/css" height="153px" preserveAspectRatio="none" style="width:326px;height:153px;" version="1.1" viewBox="0 0 326 153" width="326px" zoomAndPan="magnify"><defs><filter height="300%" id="f1gy9nz7bkets" width="300%" x="-1" y="-1"><feGaussianBlur result="blurOut" stdDeviation="2.0"/><feColorMatrix in="blurOut" result="blurOut2" type="matrix" values="0 0 0 0 0 0 0 0 0 0 0 0 0 0 0 0 0 0 .4 0"/><feOffset dx="4.0" dy="4.0" in="blurOut2" result="blurOut3"/><feBlend in="SourceGraphic" in2="blurOut3" mode="normal"/></filter></defs><g><!--MD5=[3f0ef310aaa84a542276992c5216544d]
class Car--><rect codeLine="9" fill="#F8F8F8" filter="url(#f1gy9nz7bkets)" height="23.9688" id="Car" style="stroke:#383838;stroke-width:1.5;" width="31" x="140.5" y="14.5659"/><ellipse cx="144.5" cy="26.5503" fill="#C2C2C2" rx="0" ry="0" style="stroke:#383838;stroke-width:1.0;"/><path d="M165,47.0503 Q165,47.0503 165,47.0503 Q165,47.0503 165,47.0503 Q165,47.0503 165,47.0503 Q165,47.0503 165,47.0503 Q165,47.0503 165,47.0503 Q165,47.0503 165,47.0503 Q165,47.0503 165,47.0503 Q165,47.0503 165,47.0503 L165,47.0503 Q165,47.0503 165,47.0503 Q165,47.0503 165,47.0503 Q165,47.0503 165,47.0503 Q165,47.0503 165,47.0503 Q165,47.0503 165,47.0503 Q165,47.0503 165,47.0503 Q165,47.0503 165,47.0503 Q165,47.0503 165,47.0503 L165,47.0503 Z " fill="#000000"/><text fill="#000000" font-family="sans-serif" font-size="12" lengthAdjust="spacingAndGlyphs" textLength="21" x="147.5" y="30.7046">Car</text><!--MD5=[eee9d396a8aca12c6c152931e8dc1ab6]
class Driver--><rect fill="#F8F8F8" filter="url(#f1gy9nz7bkets)" height="23.9688" id="Driver" style="stroke:#383838;stroke-width:1.5;" width="46" x="7" y="14.5659"/><ellipse cx="11" cy="26.5503" fill="#C2C2C2" rx="0" ry="0" style="stroke:#383838;stroke-width:1.0;"/><path d="M31.5,47.0503 Q31.5,47.0503 31.5,47.0503 Q31.5,47.0503 31.5,47.0503 Q31.5,47.0503 31.5,47.0503 Q31.5,47.0503 31.5,47.0503 Q31.5,47.0503 31.5,47.0503 Q31.5,47.0503 31.5,47.0503 Q31.5,47.0503 31.5,47.0503 Q31.5,47.0503 31.5,47.0503 L31.5,47.0503 Q31.5,47.0503 31.5,47.0503 Q31.5,47.0503 31.5,47.0503 Q31.5,47.0503 31.5,47.0503 Q31.5,47.0503 31.5,47.0503 Q31.5,47.0503 31.5,47.0503 Q31.5,47.0503 31.5,47.0503 Q31.5,47.0503 31.5,47.0503 Q31.5,47.0503 31.5,47.0503 L31.5,47.0503 Z " fill="#000000"/><text fill="#000000" font-family="sans-serif" font-size="12" lengthAdjust="spacingAndGlyphs" textLength="36" x="14" y="30.7046">Driver</text><!--MD5=[63ed6a0a2dfd613875880437a5e2b06e]
class Wheel--><rect fill="#F8F8F8" filter="url(#f1gy9nz7bkets)" height="23.9688" id="Wheel" style="stroke:#383838;stroke-width:1.5;" width="48" x="264" y="14.5659"/><ellipse cx="268" cy="26.5503" fill="#C2C2C2" rx="0" ry="0" style="stroke:#383838;stroke-width:1.0;"/><path d="M288.5,47.0503 Q288.5,47.0503 288.5,47.0503 Q288.5,47.0503 288.5,47.0503 Q288.5,47.0503 288.5,47.0503 Q288.5,47.0503 288.5,47.0503 Q288.5,47.0503 288.5,47.0503 Q288.5,47.0503 288.5,47.0503 Q288.5,47.0503 288.5,47.0503 Q288.5,47.0503 288.5,47.0503 L288.5,47.0503 Q288.5,47.0503 288.5,47.0503 Q288.5,47.0503 288.5,47.0503 Q288.5,47.0503 288.5,47.0503 Q288.5,47.0503 288.5,47.0503 Q288.5,47.0503 288.5,47.0503 Q288.5,47.0503 288.5,47.0503 Q288.5,47.0503 288.5,47.0503 Q288.5,47.0503 288.5,47.0503 L288.5,47.0503 Z " fill="#000000"/><text fill="#000000" font-family="sans-serif" font-size="12" lengthAdjust="spacingAndGlyphs" textLength="38" x="271" y="30.7046">Wheel</text><!--MD5=[09ce52be0ee7de43c61b6e2d59bf108b]
class Person--><rect fill="#F8F8F8" filter="url(#f1gy9nz7bkets)" height="23.9688" id="Person" style="stroke:#383838;stroke-width:1.5;" width="54" x="129" y="115.5659"/><ellipse cx="133" cy="127.5503" fill="#C2C2C2" rx="0" ry="0" style="stroke:#383838;stroke-width:1.0;"/><path d="M153.5,148.0503 Q153.5,148.0503 153.5,148.0503 Q153.5,148.0503 153.5,148.0503 Q153.5,148.0503 153.5,148.0503 Q153.5,148.0503 153.5,148.0503 Q153.5,148.0503 153.5,148.0503 Q153.5,148.0503 153.5,148.0503 Q153.5,148.0503 153.5,148.0503 Q153.5,148.0503 153.5,148.0503 L153.5,148.0503 Q153.5,148.0503 153.5,148.0503 Q153.5,148.0503 153.5,148.0503 Q153.5,148.0503 153.5,148.0503 Q153.5,148.0503 153.5,148.0503 Q153.5,148.0503 153.5,148.0503 Q153.5,148.0503 153.5,148.0503 Q153.5,148.0503 153.5,148.0503 Q153.5,148.0503 153.5,148.0503 L153.5,148.0503 Z " fill="#000000"/><text fill="#000000" font-family="sans-serif" font-size="12" lengthAdjust="spacingAndGlyphs" textLength="44" x="136" y="131.7046">Person</text><!--MD5=[85884a73f707af3ae230d559cad4fc2c]
link Driver to Car--><path codeLine="11" d="M53.11,26.5659 C78.4,26.5659 118.27,26.5659 140.21,26.5659 " fill="none" id="Driver-Car" style="stroke:#383838;stroke-width:1.0;"/><polygon fill="#000000" points="80.25,15.1323,71.2049,12.1934,71.2049,18.0713,80.25,15.1323" style="stroke:#000000;stroke-width:1.0;"/><text fill="#000000" font-family="sans-serif" font-size="13" lengthAdjust="spacingAndGlyphs" textLength="38" x="84.25" y="19.6328">drives</text><!--MD5=[6190aadcc963d15c02367c0199cc5452]
reverse link Car to Wheel--><path codeLine="12" d="M184.99,26.5659 C208.64,26.5659 241.64,26.5659 263.86,26.5659 " fill="none" id="Car-backto-Wheel" style="stroke:#383838;stroke-width:1.0;"/><polygon fill="#383838" points="171.66,26.5659,177.66,30.5659,183.66,26.5659,177.66,22.5659,171.66,26.5659" style="stroke:#383838;stroke-width:1.0;"/><polygon fill="#000000" points="198.75,15.1323,189.7049,12.1934,189.7049,18.0713,198.75,15.1323" style="stroke:#000000;stroke-width:1.0;"/><text fill="#000000" font-family="sans-serif" font-size="13" lengthAdjust="spacingAndGlyphs" textLength="43" x="202.75" y="19.6328">have 4</text><!--MD5=[2800f28b8e2a8d078fc1fa2e2aa6715e]
link Car to Person--><path codeLine="13" d="M156,38.9259 C156,58.0159 156,96.3359 156,115.3459 " fill="none" id="Car-Person" style="stroke:#383838;stroke-width:1.0;"/><polygon fill="#000000" points="161,72.1323,158.0611,81.1774,163.9389,81.1774,161,72.1323" style="stroke:#000000;stroke-width:1.0;"/><text fill="#000000" font-family="sans-serif" font-size="13" lengthAdjust="spacingAndGlyphs" textLength="32" x="170" y="81.6328">owns</text><!--MD5=[71a4641396a66d2fb7bcdbc8c2c59a12]
@startuml

'style options
skinparam monochrome true
skinparam circledCharacterRadius 0
skinparam circledCharacterFontSize 0
skinparam classAttributeIconSize 0
hide empty members

class Car

Driver - Car : drives >
Car *- Wheel : have 4 >
Car - - Person : < owns

@enduml

@startuml

skinparam monochrome true
skinparam circledCharacterRadius 0
skinparam circledCharacterFontSize 0
skinparam classAttributeIconSize 0
hide empty members

class Car

Driver - Car : drives >
Car *- Wheel : have 4 >
Car - - Person : < owns

@enduml

PlantUML version 1.2020.26(Mon Dec 21 12:45:07 EST 2020)
(GPL source distribution)
Java Runtime: OpenJDK Runtime Environment
JVM: OpenJDK 64-Bit Server VM
Default Encoding: UTF-8
Language: en
Country: null
--></g></svg>