<?xml version="1.0" encoding="UTF-8" standalone="no"?><svg xmlns="http://www.w3.org/2000/svg" xmlns:xlink="http://www.w3.org/1999/xlink" contentScriptType="application/ecmascript" contentStyleType="text/css" height="126px" preserveAspectRatio="none" style="width:452px;height:126px;" version="1.1" viewBox="0 0 452 126" width="452px" zoomAndPan="magnify"><defs><filter height="300%" id="f6qvxficli74p" width="300%" x="-1" y="-1"><feGaussianBlur result="blurOut" stdDeviation="2.0"/><feColorMatrix in="blurOut" result="blurOut2" type="matrix" values="0 0 0 0 0 0 0 0 0 0 0 0 0 0 0 0 0 0 .4 0"/><feOffset dx="4.0" dy="4.0" in="blurOut2" result="blurOut3"/><feBlend in="SourceGraphic" in2="blurOut3" mode="normal"/></filter></defs><g><!--MD5=[b2f23c4a06b9bc4c947f037f864aea3c]
class Class01--><rect fill="#F8F8F8" filter="url(#f6qvxficli74p)" height="23.9688" id="Class01" style="stroke: #383838; stroke-width: 1.5;" width="59" x="6" y="8"/><ellipse cx="10" cy="19.9844" fill="#C2C2C2" rx="0" ry="0" style="stroke: #383838; stroke-width: 1.0;"/><path d="M30.5,40.4844 Q30.5,40.4844 30.5,40.4844 Q30.5,40.4844 30.5,40.4844 Q30.5,40.4844 30.5,40.4844 Q30.5,40.4844 30.5,40.4844 Q30.5,40.4844 30.5,40.4844 Q30.5,40.4844 30.5,40.4844 Q30.5,40.4844 30.5,40.4844 Q30.5,40.4844 30.5,40.4844 L30.5,40.4844 Q30.5,40.4844 30.5,40.4844 Q30.5,40.4844 30.5,40.4844 Q30.5,40.4844 30.5,40.4844 Q30.5,40.4844 30.5,40.4844 Q30.5,40.4844 30.5,40.4844 Q30.5,40.4844 30.5,40.4844 Q30.5,40.4844 30.5,40.4844 Q30.5,40.4844 30.5,40.4844 L30.5,40.4844 Z "/><text fill="#000000" font-family="sans-serif" font-size="12" lengthAdjust="spacingAndGlyphs" textLength="49" x="13" y="24.1387">Class01</text><!--MD5=[67b7f66b9c6b27d60ed6d0424460c06c]
class Class02--><rect fill="#F8F8F8" filter="url(#f6qvxficli74p)" height="23.9688" id="Class02" style="stroke: #383838; stroke-width: 1.5;" width="59" x="6" y="92"/><ellipse cx="10" cy="103.9844" fill="#C2C2C2" rx="0" ry="0" style="stroke: #383838; stroke-width: 1.0;"/><path d="M30.5,124.4844 Q30.5,124.4844 30.5,124.4844 Q30.5,124.4844 30.5,124.4844 Q30.5,124.4844 30.5,124.4844 Q30.5,124.4844 30.5,124.4844 Q30.5,124.4844 30.5,124.4844 Q30.5,124.4844 30.5,124.4844 Q30.5,124.4844 30.5,124.4844 Q30.5,124.4844 30.5,124.4844 L30.5,124.4844 Q30.5,124.4844 30.5,124.4844 Q30.5,124.4844 30.5,124.4844 Q30.5,124.4844 30.5,124.4844 Q30.5,124.4844 30.5,124.4844 Q30.5,124.4844 30.5,124.4844 Q30.5,124.4844 30.5,124.4844 Q30.5,124.4844 30.5,124.4844 Q30.5,124.4844 30.5,124.4844 L30.5,124.4844 Z "/><text fill="#000000" font-family="sans-serif" font-size="12" lengthAdjust="spacingAndGlyphs" textLength="49" x="13" y="108.1387">Class02</text><!--MD5=[e34eefe962fcadefcbf83660cc436420]
class Class03--><rect fill="#F8F8F8" filter="url(#f6qvxficli74p)" height="23.9688" id="Class03" style="stroke: #383838; stroke-width: 1.5;" width="59" x="100" y="8"/><ellipse cx="104" cy="19.9844" fill="#C2C2C2" rx="0" ry="0" style="stroke: #383838; stroke-width: 1.0;"/><path d="M124.5,40.4844 Q124.5,40.4844 124.5,40.4844 Q124.5,40.4844 124.5,40.4844 Q124.5,40.4844 124.5,40.4844 Q124.5,40.4844 124.5,40.4844 Q124.5,40.4844 124.5,40.4844 Q124.5,40.4844 124.5,40.4844 Q124.5,40.4844 124.5,40.4844 Q124.5,40.4844 124.5,40.4844 L124.5,40.4844 Q124.5,40.4844 124.5,40.4844 Q124.5,40.4844 124.5,40.4844 Q124.5,40.4844 124.5,40.4844 Q124.5,40.4844 124.5,40.4844 Q124.5,40.4844 124.5,40.4844 Q124.5,40.4844 124.5,40.4844 Q124.5,40.4844 124.5,40.4844 Q124.5,40.4844 124.5,40.4844 L124.5,40.4844 Z "/><text fill="#000000" font-family="sans-serif" font-size="12" lengthAdjust="spacingAndGlyphs" textLength="49" x="107" y="24.1387">Class03</text><!--MD5=[d53a23475d458e69a9e37a48405189e2]
class Class04--><rect fill="#F8F8F8" filter="url(#f6qvxficli74p)" height="23.9688" id="Class04" style="stroke: #383838; stroke-width: 1.5;" width="59" x="100" y="92"/><ellipse cx="104" cy="103.9844" fill="#C2C2C2" rx="0" ry="0" style="stroke: #383838; stroke-width: 1.0;"/><path d="M124.5,124.4844 Q124.5,124.4844 124.5,124.4844 Q124.5,124.4844 124.5,124.4844 Q124.5,124.4844 124.5,124.4844 Q124.5,124.4844 124.5,124.4844 Q124.5,124.4844 124.5,124.4844 Q124.5,124.4844 124.5,124.4844 Q124.5,124.4844 124.5,124.4844 Q124.5,124.4844 124.5,124.4844 L124.5,124.4844 Q124.5,124.4844 124.5,124.4844 Q124.5,124.4844 124.5,124.4844 Q124.5,124.4844 124.5,124.4844 Q124.5,124.4844 124.5,124.4844 Q124.5,124.4844 124.5,124.4844 Q124.5,124.4844 124.5,124.4844 Q124.5,124.4844 124.5,124.4844 Q124.5,124.4844 124.5,124.4844 L124.5,124.4844 Z "/><text fill="#000000" font-family="sans-serif" font-size="12" lengthAdjust="spacingAndGlyphs" textLength="49" x="107" y="108.1387">Class04</text><!--MD5=[21c802bf509ebb275d96eccffaf3e0b6]
class Class05--><rect fill="#F8F8F8" filter="url(#f6qvxficli74p)" height="23.9688" id="Class05" style="stroke: #383838; stroke-width: 1.5;" width="59" x="194" y="8"/><ellipse cx="198" cy="19.9844" fill="#C2C2C2" rx="0" ry="0" style="stroke: #383838; stroke-width: 1.0;"/><path d="M218.5,40.4844 Q218.5,40.4844 218.5,40.4844 Q218.5,40.4844 218.5,40.4844 Q218.5,40.4844 218.5,40.4844 Q218.5,40.4844 218.5,40.4844 Q218.5,40.4844 218.5,40.4844 Q218.5,40.4844 218.5,40.4844 Q218.5,40.4844 218.5,40.4844 Q218.5,40.4844 218.5,40.4844 L218.5,40.4844 Q218.5,40.4844 218.5,40.4844 Q218.5,40.4844 218.5,40.4844 Q218.5,40.4844 218.5,40.4844 Q218.5,40.4844 218.5,40.4844 Q218.5,40.4844 218.5,40.4844 Q218.5,40.4844 218.5,40.4844 Q218.5,40.4844 218.5,40.4844 Q218.5,40.4844 218.5,40.4844 L218.5,40.4844 Z "/><text fill="#000000" font-family="sans-serif" font-size="12" lengthAdjust="spacingAndGlyphs" textLength="49" x="201" y="24.1387">Class05</text><!--MD5=[247dd373b5711b206209116e093ec52c]
class Class06--><rect fill="#F8F8F8" filter="url(#f6qvxficli74p)" height="23.9688" id="Class06" style="stroke: #383838; stroke-width: 1.5;" width="59" x="194" y="92"/><ellipse cx="198" cy="103.9844" fill="#C2C2C2" rx="0" ry="0" style="stroke: #383838; stroke-width: 1.0;"/><path d="M218.5,124.4844 Q218.5,124.4844 218.5,124.4844 Q218.5,124.4844 218.5,124.4844 Q218.5,124.4844 218.5,124.4844 Q218.5,124.4844 218.5,124.4844 Q218.5,124.4844 218.5,124.4844 Q218.5,124.4844 218.5,124.4844 Q218.5,124.4844 218.5,124.4844 Q218.5,124.4844 218.5,124.4844 L218.5,124.4844 Q218.5,124.4844 218.5,124.4844 Q218.5,124.4844 218.5,124.4844 Q218.5,124.4844 218.5,124.4844 Q218.5,124.4844 218.5,124.4844 Q218.5,124.4844 218.5,124.4844 Q218.5,124.4844 218.5,124.4844 Q218.5,124.4844 218.5,124.4844 Q218.5,124.4844 218.5,124.4844 L218.5,124.4844 Z "/><text fill="#000000" font-family="sans-serif" font-size="12" lengthAdjust="spacingAndGlyphs" textLength="49" x="201" y="108.1387">Class06</text><!--MD5=[83017deacfdfe1c29bd0eb2a2cc9c723]
class Class07--><rect fill="#F8F8F8" filter="url(#f6qvxficli74p)" height="23.9688" id="Class07" style="stroke: #383838; stroke-width: 1.5;" width="59" x="288" y="8"/><ellipse cx="292" cy="19.9844" fill="#C2C2C2" rx="0" ry="0" style="stroke: #383838; stroke-width: 1.0;"/><path d="M312.5,40.4844 Q312.5,40.4844 312.5,40.4844 Q312.5,40.4844 312.5,40.4844 Q312.5,40.4844 312.5,40.4844 Q312.5,40.4844 312.5,40.4844 Q312.5,40.4844 312.5,40.4844 Q312.5,40.4844 312.5,40.4844 Q312.5,40.4844 312.5,40.4844 Q312.5,40.4844 312.5,40.4844 L312.5,40.4844 Q312.5,40.4844 312.5,40.4844 Q312.5,40.4844 312.5,40.4844 Q312.5,40.4844 312.5,40.4844 Q312.5,40.4844 312.5,40.4844 Q312.5,40.4844 312.5,40.4844 Q312.5,40.4844 312.5,40.4844 Q312.5,40.4844 312.5,40.4844 Q312.5,40.4844 312.5,40.4844 L312.5,40.4844 Z "/><text fill="#000000" font-family="sans-serif" font-size="12" lengthAdjust="spacingAndGlyphs" textLength="49" x="295" y="24.1387">Class07</text><!--MD5=[0e75c8574cc137f0f93c5ac687b4b98c]
class Class08--><rect fill="#F8F8F8" filter="url(#f6qvxficli74p)" height="23.9688" id="Class08" style="stroke: #383838; stroke-width: 1.5;" width="59" x="288" y="92"/><ellipse cx="292" cy="103.9844" fill="#C2C2C2" rx="0" ry="0" style="stroke: #383838; stroke-width: 1.0;"/><path d="M312.5,124.4844 Q312.5,124.4844 312.5,124.4844 Q312.5,124.4844 312.5,124.4844 Q312.5,124.4844 312.5,124.4844 Q312.5,124.4844 312.5,124.4844 Q312.5,124.4844 312.5,124.4844 Q312.5,124.4844 312.5,124.4844 Q312.5,124.4844 312.5,124.4844 Q312.5,124.4844 312.5,124.4844 L312.5,124.4844 Q312.5,124.4844 312.5,124.4844 Q312.5,124.4844 312.5,124.4844 Q312.5,124.4844 312.5,124.4844 Q312.5,124.4844 312.5,124.4844 Q312.5,124.4844 312.5,124.4844 Q312.5,124.4844 312.5,124.4844 Q312.5,124.4844 312.5,124.4844 Q312.5,124.4844 312.5,124.4844 L312.5,124.4844 Z "/><text fill="#000000" font-family="sans-serif" font-size="12" lengthAdjust="spacingAndGlyphs" textLength="49" x="295" y="108.1387">Class08</text><!--MD5=[11c0341282256c64706f32de960d439a]
class Class09--><rect fill="#F8F8F8" filter="url(#f6qvxficli74p)" height="23.9688" id="Class09" style="stroke: #383838; stroke-width: 1.5;" width="59" x="382" y="8"/><ellipse cx="386" cy="19.9844" fill="#C2C2C2" rx="0" ry="0" style="stroke: #383838; stroke-width: 1.0;"/><path d="M406.5,40.4844 Q406.5,40.4844 406.5,40.4844 Q406.5,40.4844 406.5,40.4844 Q406.5,40.4844 406.5,40.4844 Q406.5,40.4844 406.5,40.4844 Q406.5,40.4844 406.5,40.4844 Q406.5,40.4844 406.5,40.4844 Q406.5,40.4844 406.5,40.4844 Q406.5,40.4844 406.5,40.4844 L406.5,40.4844 Q406.5,40.4844 406.5,40.4844 Q406.5,40.4844 406.5,40.4844 Q406.5,40.4844 406.5,40.4844 Q406.5,40.4844 406.5,40.4844 Q406.5,40.4844 406.5,40.4844 Q406.5,40.4844 406.5,40.4844 Q406.5,40.4844 406.5,40.4844 Q406.5,40.4844 406.5,40.4844 L406.5,40.4844 Z "/><text fill="#000000" font-family="sans-serif" font-size="12" lengthAdjust="spacingAndGlyphs" textLength="49" x="389" y="24.1387">Class09</text><!--MD5=[f0780a43e5c0af3c52b439b7f3f3994e]
class Class10--><rect fill="#F8F8F8" filter="url(#f6qvxficli74p)" height="23.9688" id="Class10" style="stroke: #383838; stroke-width: 1.5;" width="59" x="382" y="92"/><ellipse cx="386" cy="103.9844" fill="#C2C2C2" rx="0" ry="0" style="stroke: #383838; stroke-width: 1.0;"/><path d="M406.5,124.4844 Q406.5,124.4844 406.5,124.4844 Q406.5,124.4844 406.5,124.4844 Q406.5,124.4844 406.5,124.4844 Q406.5,124.4844 406.5,124.4844 Q406.5,124.4844 406.5,124.4844 Q406.5,124.4844 406.5,124.4844 Q406.5,124.4844 406.5,124.4844 Q406.5,124.4844 406.5,124.4844 L406.5,124.4844 Q406.5,124.4844 406.5,124.4844 Q406.5,124.4844 406.5,124.4844 Q406.5,124.4844 406.5,124.4844 Q406.5,124.4844 406.5,124.4844 Q406.5,124.4844 406.5,124.4844 Q406.5,124.4844 406.5,124.4844 Q406.5,124.4844 406.5,124.4844 Q406.5,124.4844 406.5,124.4844 L406.5,124.4844 Z "/><text fill="#000000" font-family="sans-serif" font-size="12" lengthAdjust="spacingAndGlyphs" textLength="49" x="389" y="108.1387">Class10</text><!--MD5=[3ab52052fd7925c5f64fca5d41d6866e]
reverse link Class01 to Class02--><path d="M35.5,52.2 C35.5,66.14 35.5,81.68 35.5,91.85 " fill="none" id="Class01&lt;-Class02" style="stroke: #383838; stroke-width: 1.0;"/><polygon fill="none" points="28.5,52.06,35.5,32.06,42.5,52.06,28.5,52.06" style="stroke: #383838; stroke-width: 1.0;"/><!--MD5=[0815ca07f8d628dc1a46a48ef0cd4c01]
reverse link Class03 to Class04--><path d="M129.5,45.32 C129.5,60.74 129.5,79.96 129.5,91.85 " fill="none" id="Class03&lt;-Class04" style="stroke: #383838; stroke-width: 1.0;"/><polygon fill="#383838" points="129.5,32.06,125.5,38.06,129.5,44.06,133.5,38.06,129.5,32.06" style="stroke: #383838; stroke-width: 1.0;"/><!--MD5=[07ec844cc9d193d99f69abe09e63aa9e]
reverse link Class05 to Class06--><path d="M223.5,45.32 C223.5,60.74 223.5,79.96 223.5,91.85 " fill="none" id="Class05&lt;-Class06" style="stroke: #383838; stroke-width: 1.0;"/><polygon fill="#FFFFFF" points="223.5,32.06,219.5,38.06,223.5,44.06,227.5,38.06,223.5,32.06" style="stroke: #383838; stroke-width: 1.0;"/><!--MD5=[cd6c6022d9f7be31b268d5c573778c45]
link Class07 to Class08--><path d="M317.5,32.06 C317.5,47.71 317.5,76.16 317.5,91.85 " fill="none" id="Class07-Class08" style="stroke: #383838; stroke-width: 1.0; stroke-dasharray: 7.0,7.0;"/><!--MD5=[012abb55b9b004b4a603a60db8edb83a]
link Class09 to Class10--><path d="M411.5,32.06 C411.5,47.71 411.5,76.16 411.5,91.85 " fill="none" id="Class09-Class10" style="stroke: #383838; stroke-width: 1.0;"/><!--MD5=[d878d9050624ba58b72122cb764a8f1a]
@startuml

skinparam monochrome true
skinparam circledCharacterRadius 0
skinparam circledCharacterFontSize 0
skinparam classAttributeIconSize 0
hide empty members

Class01 <|- - Class02
Class03 *- - Class04
Class05 o- - Class06
Class07 .. Class08
Class09 - - Class10

@enduml

PlantUML version 1.2020.06(Sun Apr 05 12:38:32 GMT 2020)
(GPL source distribution)
Java Runtime: OpenJDK Runtime Environment
JVM: OpenJDK 64-Bit Server VM
Java Version: 1.8.0_242-b08
Operating System: Linux
Default Encoding: UTF-8
Language: en
Country: US
--></g></svg>