<?xml version="1.0" encoding="UTF-8" standalone="no"?><svg xmlns="http://www.w3.org/2000/svg" xmlns:xlink="http://www.w3.org/1999/xlink" contentScriptType="application/ecmascript" contentStyleType="text/css" height="984px" preserveAspectRatio="none" style="width:635px;height:984px;" version="1.1" viewBox="0 0 635 984" width="635px" zoomAndPan="magnify"><defs><filter height="300%" id="fssk4wg4cq9kg" width="300%" x="-1" y="-1"><feGaussianBlur result="blurOut" stdDeviation="2.0"/><feColorMatrix in="blurOut" result="blurOut2" type="matrix" values="0 0 0 0 0 0 0 0 0 0 0 0 0 0 0 0 0 0 .4 0"/><feOffset dx="4.0" dy="4.0" in="blurOut2" result="blurOut3"/><feBlend in="SourceGraphic" in2="blurOut3" mode="normal"/></filter></defs><g><ellipse cx="316" cy="20" fill="#000000" filter="url(#fssk4wg4cq9kg)" rx="10" ry="10" style="stroke: none; stroke-width: 1.0;"/><rect fill="#FEFECE" filter="url(#fssk4wg4cq9kg)" height="33.9688" rx="12.5" ry="12.5" style="stroke: #A80036; stroke-width: 1.5;" width="91" x="270.5" y="50"/><text fill="#000000" font-family="sans-serif" font-size="12" lengthAdjust="spacingAndGlyphs" textLength="71" x="280.5" y="71.1387">first activity</text><rect fill="#FEFECE" filter="url(#fssk4wg4cq9kg)" height="61.9063" rx="12.5" ry="12.5" style="stroke: #A80036; stroke-width: 1.5;" width="192" x="220" y="103.9688"/><text fill="#000000" font-family="sans-serif" font-size="12" lengthAdjust="spacingAndGlyphs" textLength="93" x="230" y="125.1074">second activity</text><text fill="#000000" font-family="sans-serif" font-size="12" lengthAdjust="spacingAndGlyphs" textLength="93" x="230" y="139.0762">with a multiline</text><text fill="#000000" font-family="sans-serif" font-size="12" lengthAdjust="spacingAndGlyphs" textLength="172" x="230" y="153.0449">and rather long description</text><path d="M394.5,182.7266 L394.5,198.8594 L374.5,202.8594 L394.5,206.8594 L394.5,222.9922 A0,0 0 0 0 394.5,222.9922 L614.5,222.9922 A0,0 0 0 0 614.5,222.9922 L614.5,192.7266 L604.5,182.7266 L394.5,182.7266 A0,0 0 0 0 394.5,182.7266 " fill="#FBFB77" filter="url(#fssk4wg4cq9kg)" style="stroke: #A80036; stroke-width: 1.0;"/><path d="M604.5,182.7266 L604.5,192.7266 L614.5,192.7266 L604.5,182.7266 " fill="#FBFB77" style="stroke: #A80036; stroke-width: 1.0;"/><text fill="#000000" font-family="sans-serif" font-size="13" lengthAdjust="spacingAndGlyphs" textLength="111" x="400.5" y="199.7935">After this activity,</text><text fill="#000000" font-family="sans-serif" font-size="13" lengthAdjust="spacingAndGlyphs" textLength="199" x="400.5" y="214.9263">are two 'if-then-else' examples.</text><rect fill="#FEFECE" filter="url(#fssk4wg4cq9kg)" height="33.9688" rx="12.5" ry="12.5" style="stroke: #A80036; stroke-width: 1.5;" width="117" x="257.5" y="185.875"/><text fill="#000000" font-family="sans-serif" font-size="12" lengthAdjust="spacingAndGlyphs" textLength="97" x="267.5" y="207.0137">another activity</text><polygon fill="#FEFECE" filter="url(#fssk4wg4cq9kg)" points="260,242.9922,372,242.9922,384,254.9922,372,266.9922,260,266.9922,248,254.9922,260,242.9922" style="stroke: #A80036; stroke-width: 1.5;"/><text fill="#000000" font-family="sans-serif" font-size="11" lengthAdjust="spacingAndGlyphs" textLength="112" x="260" y="258.8003">do optional activity?</text><text fill="#000000" font-family="sans-serif" font-size="11" lengthAdjust="spacingAndGlyphs" textLength="20" x="228" y="252.3979">yes</text><text fill="#000000" font-family="sans-serif" font-size="11" lengthAdjust="spacingAndGlyphs" textLength="14" x="384" y="252.3979">no</text><rect fill="#FEFECE" filter="url(#fssk4wg4cq9kg)" height="33.9688" rx="12.5" ry="12.5" style="stroke: #A80036; stroke-width: 1.5;" width="118" x="179" y="276.9922"/><text fill="#000000" font-family="sans-serif" font-size="12" lengthAdjust="spacingAndGlyphs" textLength="98" x="189" y="298.1309">optional activity</text><polygon fill="#FEFECE" filter="url(#fssk4wg4cq9kg)" points="358,276.9922,430,276.9922,442,288.9922,430,300.9922,358,300.9922,346,288.9922,358,276.9922" style="stroke: #A80036; stroke-width: 1.5;"/><text fill="#000000" font-family="sans-serif" font-size="11" lengthAdjust="spacingAndGlyphs" textLength="53" x="398" y="311.2026">not really</text><text fill="#000000" font-family="sans-serif" font-size="11" lengthAdjust="spacingAndGlyphs" textLength="72" x="358" y="292.8003">want to exit?</text><text fill="#000000" font-family="sans-serif" font-size="11" lengthAdjust="spacingAndGlyphs" textLength="56" x="442" y="286.3979">right now!</text><ellipse cx="520" cy="288.9922" fill="#FFFFFF" filter="url(#fssk4wg4cq9kg)" rx="11" ry="11" style="stroke: #000000; stroke-width: 1.0;"/><ellipse cx="520" cy="288.9922" fill="#000000" rx="6" ry="6" style="stroke: #7F7F7F; stroke-width: 1.0;"/><polygon fill="#FEFECE" filter="url(#fssk4wg4cq9kg)" points="316,322.7026,328,334.7026,316,346.7026,304,334.7026,316,322.7026" style="stroke: #A80036; stroke-width: 1.5;"/><path d="M56,363.5542 L56,403.8198 A0,0 0 0 0 56,403.8198 L248,403.8198 A0,0 0 0 0 248,403.8198 L248,387.687 L268,383.687 L248,379.687 L248,373.5542 L238,363.5542 L56,363.5542 A0,0 0 0 0 56,363.5542 " fill="#FBFB77" filter="url(#fssk4wg4cq9kg)" style="stroke: #A80036; stroke-width: 1.0;"/><path d="M238,363.5542 L238,373.5542 L248,373.5542 L238,363.5542 " fill="#FBFB77" style="stroke: #A80036; stroke-width: 1.0;"/><text fill="#000000" font-family="sans-serif" font-size="13" lengthAdjust="spacingAndGlyphs" textLength="111" x="62" y="380.6211">After this activity,</text><text fill="#000000" font-family="sans-serif" font-size="13" lengthAdjust="spacingAndGlyphs" textLength="171" x="62" y="395.7539">parallel activities will occur.</text><rect fill="#FEFECE" filter="url(#fssk4wg4cq9kg)" height="33.9688" rx="12.5" ry="12.5" style="stroke: #A80036; stroke-width: 1.5;" width="96" x="268" y="366.7026"/><text fill="#000000" font-family="sans-serif" font-size="12" lengthAdjust="spacingAndGlyphs" textLength="76" x="278" y="387.8413">third activity</text><rect fill="#000000" filter="url(#fssk4wg4cq9kg)" height="6" rx="2.5" ry="2.5" style="stroke: #000000; stroke-width: 1.0;" width="614" x="10" y="423.8198"/><rect fill="#FEFECE" filter="url(#fssk4wg4cq9kg)" height="33.9688" rx="12.5" ry="12.5" style="stroke: #A80036; stroke-width: 1.5;" width="149" x="22" y="510.3042"/><text fill="#000000" font-family="sans-serif" font-size="12" lengthAdjust="spacingAndGlyphs" textLength="129" x="32" y="531.4429">Concurrent activity A</text><rect fill="#FEFECE" filter="url(#fssk4wg4cq9kg)" height="33.9688" rx="12.5" ry="12.5" style="stroke: #A80036; stroke-width: 1.5;" width="157" x="199" y="475.8198"/><text fill="#000000" font-family="sans-serif" font-size="12" lengthAdjust="spacingAndGlyphs" textLength="137" x="209" y="496.9585">Concurrent activity B1</text><rect fill="#FEFECE" filter="url(#fssk4wg4cq9kg)" height="33.9688" rx="12.5" ry="12.5" style="stroke: #A80036; stroke-width: 1.5;" width="157" x="199" y="544.7886"/><text fill="#000000" font-family="sans-serif" font-size="12" lengthAdjust="spacingAndGlyphs" textLength="137" x="209" y="565.9272">Concurrent activity B2</text><rect fill="#FEFECE" filter="url(#fssk4wg4cq9kg)" height="33.9688" rx="12.5" ry="12.5" style="stroke: #A80036; stroke-width: 1.5;" width="149" x="422.5" y="449.8198"/><text fill="#000000" font-family="sans-serif" font-size="12" lengthAdjust="spacingAndGlyphs" textLength="129" x="432.5" y="470.9585">Concurrent activity C</text><rect fill="#000000" filter="url(#fssk4wg4cq9kg)" height="6" rx="2.5" ry="2.5" style="stroke: #000000; stroke-width: 1.0;" width="226" x="384" y="518.7886"/><rect fill="#FEFECE" filter="url(#fssk4wg4cq9kg)" height="33.9688" rx="12.5" ry="12.5" style="stroke: #A80036; stroke-width: 1.5;" width="85" x="398" y="544.7886"/><text fill="#000000" font-family="sans-serif" font-size="12" lengthAdjust="spacingAndGlyphs" textLength="65" x="408" y="565.9272">Nested C1</text><rect fill="#FEFECE" filter="url(#fssk4wg4cq9kg)" height="33.9688" rx="12.5" ry="12.5" style="stroke: #A80036; stroke-width: 1.5;" width="85" x="511" y="544.7886"/><text fill="#000000" font-family="sans-serif" font-size="12" lengthAdjust="spacingAndGlyphs" textLength="65" x="521" y="565.9272">Nested C2</text><rect fill="#000000" filter="url(#fssk4wg4cq9kg)" height="6" rx="2.5" ry="2.5" style="stroke: #000000; stroke-width: 1.0;" width="226" x="384" y="598.7573"/><rect fill="#000000" filter="url(#fssk4wg4cq9kg)" height="6" rx="2.5" ry="2.5" style="stroke: #000000; stroke-width: 1.0;" width="614" x="10" y="624.7573"/><rect fill="#FEFECE" filter="url(#fssk4wg4cq9kg)" height="33.9688" rx="12.5" ry="12.5" style="stroke: #A80036; stroke-width: 1.5;" width="126" x="253" y="694.7573"/><text fill="#000000" font-family="sans-serif" font-size="12" lengthAdjust="spacingAndGlyphs" textLength="106" x="263" y="715.896">repetitive activity</text><polygon fill="#FEFECE" filter="url(#fssk4wg4cq9kg)" points="316,650.7573,328,662.7573,316,674.7573,304,662.7573,316,650.7573" style="stroke: #A80036; stroke-width: 1.5;"/><polygon fill="#FEFECE" filter="url(#fssk4wg4cq9kg)" points="297.5,748.7261,334.5,748.7261,346.5,760.7261,334.5,772.7261,297.5,772.7261,285.5,760.7261,297.5,748.7261" style="stroke: #A80036; stroke-width: 1.5;"/><text fill="#000000" font-family="sans-serif" font-size="11" lengthAdjust="spacingAndGlyphs" textLength="37" x="297.5" y="764.5342">again?</text><rect fill="#FEFECE" filter="url(#fssk4wg4cq9kg)" height="33.9688" rx="12.5" ry="12.5" style="stroke: #A80036; stroke-width: 1.5;" width="223" x="204.5" y="853.5308"/><text fill="#000000" font-family="sans-serif" font-size="12" lengthAdjust="spacingAndGlyphs" textLength="203" x="214.5" y="874.6694">first activity inside the while loop</text><rect fill="#FEFECE" filter="url(#fssk4wg4cq9kg)" height="33.9688" rx="12.5" ry="12.5" style="stroke: #A80036; stroke-width: 1.5;" width="245" x="193.5" y="916.5972"/><text fill="#000000" font-family="sans-serif" font-size="12" lengthAdjust="spacingAndGlyphs" textLength="225" x="203.5" y="937.7358">second activity inside the while loop</text><polygon fill="#FEFECE" filter="url(#fssk4wg4cq9kg)" points="289,792.7261,343,792.7261,355,804.7261,343,816.7261,289,816.7261,277,804.7261,289,792.7261" style="stroke: #A80036; stroke-width: 1.5;"/><text fill="#000000" font-family="sans-serif" font-size="11" lengthAdjust="spacingAndGlyphs" textLength="82" x="320" y="826.9365">yes, of course</text><text fill="#000000" font-family="sans-serif" font-size="11" lengthAdjust="spacingAndGlyphs" textLength="54" x="289" y="808.5342">continue?</text><text fill="#000000" font-family="sans-serif" font-size="11" lengthAdjust="spacingAndGlyphs" textLength="14" x="263" y="802.1318">no</text><ellipse cx="170.5" cy="851.7261" fill="#FFFFFF" filter="url(#fssk4wg4cq9kg)" rx="11" ry="11" style="stroke: #000000; stroke-width: 1.0;"/><ellipse cx="170.5" cy="851.7261" fill="#000000" rx="6" ry="6" style="stroke: #7F7F7F; stroke-width: 1.0;"/><line style="stroke: #A80036; stroke-width: 1.5;" x1="316" x2="316" y1="30" y2="50"/><polygon fill="#A80036" points="312,40,316,50,320,40,316,44" style="stroke: #A80036; stroke-width: 1.0;"/><line style="stroke: #A80036; stroke-width: 1.5;" x1="316" x2="316" y1="83.9688" y2="103.9688"/><polygon fill="#A80036" points="312,93.9688,316,103.9688,320,93.9688,316,97.9688" style="stroke: #A80036; stroke-width: 1.0;"/><line style="stroke: #A80036; stroke-width: 1.5;" x1="316" x2="316" y1="165.875" y2="185.875"/><polygon fill="#A80036" points="312,175.875,316,185.875,320,175.875,316,179.875" style="stroke: #A80036; stroke-width: 1.0;"/><line style="stroke: #A80036; stroke-width: 1.5;" x1="394" x2="394" y1="300.9922" y2="334.7026"/><line style="stroke: #A80036; stroke-width: 1.5;" x1="394" x2="328" y1="334.7026" y2="334.7026"/><polygon fill="#A80036" points="338,330.7026,328,334.7026,338,338.7026,334,334.7026" style="stroke: #A80036; stroke-width: 1.0;"/><line style="stroke: #A80036; stroke-width: 1.5;" x1="442" x2="509" y1="288.9922" y2="288.9922"/><polygon fill="#A80036" points="499,284.9922,509,288.9922,499,292.9922,503,288.9922" style="stroke: #A80036; stroke-width: 1.0;"/><line style="stroke: #A80036; stroke-width: 1.5;" x1="248" x2="238" y1="254.9922" y2="254.9922"/><line style="stroke: #A80036; stroke-width: 1.5;" x1="238" x2="238" y1="254.9922" y2="276.9922"/><polygon fill="#A80036" points="234,266.9922,238,276.9922,242,266.9922,238,270.9922" style="stroke: #A80036; stroke-width: 1.0;"/><line style="stroke: #A80036; stroke-width: 1.5;" x1="384" x2="394" y1="254.9922" y2="254.9922"/><line style="stroke: #A80036; stroke-width: 1.5;" x1="394" x2="394" y1="254.9922" y2="276.9922"/><polygon fill="#A80036" points="390,266.9922,394,276.9922,398,266.9922,394,270.9922" style="stroke: #A80036; stroke-width: 1.0;"/><line style="stroke: #A80036; stroke-width: 1.5;" x1="238" x2="238" y1="310.9609" y2="334.7026"/><line style="stroke: #A80036; stroke-width: 1.5;" x1="238" x2="304" y1="334.7026" y2="334.7026"/><polygon fill="#A80036" points="294,330.7026,304,334.7026,294,338.7026,298,334.7026" style="stroke: #A80036; stroke-width: 1.0;"/><line style="stroke: #A80036; stroke-width: 1.5;" x1="316" x2="316" y1="219.8438" y2="242.9922"/><polygon fill="#A80036" points="312,232.9922,316,242.9922,320,232.9922,316,236.9922" style="stroke: #A80036; stroke-width: 1.0;"/><line style="stroke: #A80036; stroke-width: 1.5;" x1="316" x2="316" y1="346.7026" y2="366.7026"/><polygon fill="#A80036" points="312,356.7026,316,366.7026,320,356.7026,316,360.7026" style="stroke: #A80036; stroke-width: 1.0;"/><line style="stroke: #A80036; stroke-width: 1.5;" x1="277.5" x2="277.5" y1="509.7886" y2="544.7886"/><polygon fill="#A80036" points="273.5,534.7886,277.5,544.7886,281.5,534.7886,277.5,538.7886" style="stroke: #A80036; stroke-width: 1.0;"/><line style="stroke: #A80036; stroke-width: 1.5;" x1="440.5" x2="440.5" y1="524.7886" y2="544.7886"/><polygon fill="#A80036" points="436.5,534.7886,440.5,544.7886,444.5,534.7886,440.5,538.7886" style="stroke: #A80036; stroke-width: 1.0;"/><line style="stroke: #A80036; stroke-width: 1.5;" x1="553.5" x2="553.5" y1="524.7886" y2="544.7886"/><polygon fill="#A80036" points="549.5,534.7886,553.5,544.7886,557.5,534.7886,553.5,538.7886" style="stroke: #A80036; stroke-width: 1.0;"/><line style="stroke: #A80036; stroke-width: 1.5;" x1="440.5" x2="440.5" y1="578.7573" y2="598.7573"/><polygon fill="#A80036" points="436.5,588.7573,440.5,598.7573,444.5,588.7573,440.5,592.7573" style="stroke: #A80036; stroke-width: 1.0;"/><line style="stroke: #A80036; stroke-width: 1.5;" x1="553.5" x2="553.5" y1="578.7573" y2="598.7573"/><polygon fill="#A80036" points="549.5,588.7573,553.5,598.7573,557.5,588.7573,553.5,592.7573" style="stroke: #A80036; stroke-width: 1.0;"/><line style="stroke: #A80036; stroke-width: 1.5;" x1="497" x2="497" y1="483.7886" y2="518.7886"/><polygon fill="#A80036" points="493,508.7886,497,518.7886,501,508.7886,497,512.7886" style="stroke: #A80036; stroke-width: 1.0;"/><line style="stroke: #A80036; stroke-width: 1.5;" x1="96.5" x2="96.5" y1="429.8198" y2="510.3042"/><polygon fill="#A80036" points="92.5,500.3042,96.5,510.3042,100.5,500.3042,96.5,504.3042" style="stroke: #A80036; stroke-width: 1.0;"/><line style="stroke: #A80036; stroke-width: 1.5;" x1="277.5" x2="277.5" y1="429.8198" y2="475.8198"/><polygon fill="#A80036" points="273.5,465.8198,277.5,475.8198,281.5,465.8198,277.5,469.8198" style="stroke: #A80036; stroke-width: 1.0;"/><line style="stroke: #A80036; stroke-width: 1.5;" x1="497" x2="497" y1="429.8198" y2="449.8198"/><polygon fill="#A80036" points="493,439.8198,497,449.8198,501,439.8198,497,443.8198" style="stroke: #A80036; stroke-width: 1.0;"/><line style="stroke: #A80036; stroke-width: 1.5;" x1="96.5" x2="96.5" y1="544.2729" y2="624.7573"/><polygon fill="#A80036" points="92.5,614.7573,96.5,624.7573,100.5,614.7573,96.5,618.7573" style="stroke: #A80036; stroke-width: 1.0;"/><line style="stroke: #A80036; stroke-width: 1.5;" x1="277.5" x2="277.5" y1="578.7573" y2="624.7573"/><polygon fill="#A80036" points="273.5,614.7573,277.5,624.7573,281.5,614.7573,277.5,618.7573" style="stroke: #A80036; stroke-width: 1.0;"/><line style="stroke: #A80036; stroke-width: 1.5;" x1="497" x2="497" y1="604.7573" y2="624.7573"/><polygon fill="#A80036" points="493,614.7573,497,624.7573,501,614.7573,497,618.7573" style="stroke: #A80036; stroke-width: 1.0;"/><line style="stroke: #A80036; stroke-width: 1.5;" x1="316" x2="316" y1="400.6714" y2="423.8198"/><polygon fill="#A80036" points="312,413.8198,316,423.8198,320,413.8198,316,417.8198" style="stroke: #A80036; stroke-width: 1.0;"/><line style="stroke: #A80036; stroke-width: 1.5;" x1="316" x2="316" y1="674.7573" y2="694.7573"/><polygon fill="#A80036" points="312,684.7573,316,694.7573,320,684.7573,316,688.7573" style="stroke: #A80036; stroke-width: 1.0;"/><line style="stroke: #A80036; stroke-width: 1.5;" x1="346.5" x2="391" y1="760.7261" y2="760.7261"/><polygon fill="#A80036" points="387,721.7417,391,711.7417,395,721.7417,391,717.7417" style="stroke: #A80036; stroke-width: 1.5;"/><line style="stroke: #A80036; stroke-width: 1.5;" x1="391" x2="391" y1="662.7573" y2="760.7261"/><line style="stroke: #A80036; stroke-width: 1.5;" x1="391" x2="328" y1="662.7573" y2="662.7573"/><polygon fill="#A80036" points="338,658.7573,328,662.7573,338,666.7573,334,662.7573" style="stroke: #A80036; stroke-width: 1.0;"/><line style="stroke: #A80036; stroke-width: 1.5;" x1="316" x2="316" y1="728.7261" y2="748.7261"/><polygon fill="#A80036" points="312,738.7261,316,748.7261,320,738.7261,316,742.7261" style="stroke: #A80036; stroke-width: 1.0;"/><line style="stroke: #A80036; stroke-width: 1.5;" x1="316" x2="316" y1="630.7573" y2="650.7573"/><polygon fill="#A80036" points="312,640.7573,316,650.7573,320,640.7573,316,644.7573" style="stroke: #A80036; stroke-width: 1.0;"/><line style="stroke: #A80036; stroke-width: 1.5;" x1="316" x2="316" y1="887.4995" y2="916.5972"/><polygon fill="#A80036" points="312,906.5972,316,916.5972,320,906.5972,316,910.5972" style="stroke: #A80036; stroke-width: 1.0;"/><line style="stroke: #A80036; stroke-width: 1.5;" x1="316" x2="316" y1="816.7261" y2="853.5308"/><polygon fill="#A80036" points="312,843.5308,316,853.5308,320,843.5308,316,847.5308" style="stroke: #A80036; stroke-width: 1.0;"/><line style="stroke: #A80036; stroke-width: 1.5;" x1="316" x2="316" y1="950.5659" y2="960.5659"/><line style="stroke: #A80036; stroke-width: 1.5;" x1="316" x2="450.5" y1="960.5659" y2="960.5659"/><polygon fill="#A80036" points="446.5,896.5972,450.5,886.5972,454.5,896.5972,450.5,892.5972" style="stroke: #A80036; stroke-width: 1.5;"/><line style="stroke: #A80036; stroke-width: 1.5;" x1="450.5" x2="450.5" y1="804.7261" y2="960.5659"/><line style="stroke: #A80036; stroke-width: 1.5;" x1="450.5" x2="355" y1="804.7261" y2="804.7261"/><polygon fill="#A80036" points="365,800.7261,355,804.7261,365,808.7261,361,804.7261" style="stroke: #A80036; stroke-width: 1.0;"/><line style="stroke: #A80036; stroke-width: 1.5;" x1="277" x2="170.5" y1="804.7261" y2="804.7261"/><line style="stroke: #A80036; stroke-width: 1.5;" x1="170.5" x2="170.5" y1="804.7261" y2="840.7261"/><polygon fill="#A80036" points="166.5,830.7261,170.5,840.7261,174.5,830.7261,170.5,834.7261" style="stroke: #A80036; stroke-width: 1.0;"/><line style="stroke: #A80036; stroke-width: 1.5;" x1="316" x2="316" y1="772.7261" y2="792.7261"/><polygon fill="#A80036" points="312,782.7261,316,792.7261,320,782.7261,316,786.7261" style="stroke: #A80036; stroke-width: 1.0;"/><!--MD5=[d09c09a95bdb88be61f50fb193f6d959]
@startuml

start

:first activity;

:second activity
with a multiline
and rather long description;

:another activity;

note right
 After this activity,
 are two 'if-then-else' examples.
end note

if (do optional activity?) then (yes)
  :optional activity;
else (no)

  if (want to exit?) then (right now!)
     stop
  else (not really)

  endif

endif

:third activity;

note left
 After this activity,
 parallel activities will occur.
end note

fork
  :Concurrent activity A;
fork again
  :Concurrent activity B1;
  :Concurrent activity B2;
fork again
  :Concurrent activity C;
  fork
  :Nested C1;
  fork again
  :Nested C2;
  end fork
end fork

repeat
  :repetitive activity;
repeat while (again?)

while (continue?) is (yes, of course)
 :first activity inside the while loop;
 :second activity inside the while loop;
endwhile (no)

stop

@enduml

PlantUML version 1.2020.08(Sun Apr 26 14:08:22 GMT 2020)
(GPL source distribution)
Java Runtime: OpenJDK Runtime Environment
JVM: OpenJDK 64-Bit Server VM
Java Version: 1.8.0_242-b08
Operating System: Linux
Default Encoding: UTF-8
Language: en
Country: US
--></g></svg>