<?xml version="1.0" encoding="UTF-8" standalone="no"?><svg xmlns="http://www.w3.org/2000/svg" xmlns:xlink="http://www.w3.org/1999/xlink" contentScriptType="application/ecmascript" contentStyleType="text/css" height="677px" preserveAspectRatio="none" style="width:853px;height:677px;" version="1.1" viewBox="0 0 853 677" width="853px" zoomAndPan="magnify"><defs><filter height="300%" id="f1e6llrkkhu6wf" width="300%" x="-1" y="-1"><feGaussianBlur result="blurOut" stdDeviation="2.0"/><feColorMatrix in="blurOut" result="blurOut2" type="matrix" values="0 0 0 0 0 0 0 0 0 0 0 0 0 0 0 0 0 0 .4 0"/><feOffset dx="4.0" dy="4.0" in="blurOut2" result="blurOut3"/><feBlend in="SourceGraphic" in2="blurOut3" mode="normal"/></filter></defs><g><ellipse cx="394" cy="16" fill="#000000" filter="url(#f1e6llrkkhu6wf)" rx="10" ry="10" style="stroke:none;stroke-width:1.0;"/><g id="MyState"><rect fill="#FEFECE" filter="url(#f1e6llrkkhu6wf)" height="64.2344" rx="12.5" ry="12.5" style="stroke:#A80036;stroke-width:1.5;" width="151" x="318.5" y="87"/><line style="stroke:#A80036;stroke-width:1.5;" x1="318.5" x2="469.5" y1="113.2969" y2="113.2969"/><text fill="#000000" font-family="sans-serif" font-size="14" lengthAdjust="spacingAndGlyphs" textLength="55" x="366.5" y="104.9951">MyState</text><text fill="#000000" font-family="sans-serif" font-size="12" lengthAdjust="spacingAndGlyphs" textLength="89" x="323.5" y="129.4355">this is a string</text><text fill="#000000" font-family="sans-serif" font-size="12" lengthAdjust="spacingAndGlyphs" textLength="131" x="323.5" y="143.4043">this is another string</text></g><g id="WrongState"><rect fill="#FEFECE" filter="url(#f1e6llrkkhu6wf)" height="50" rx="12.5" ry="12.5" style="stroke:#A80036;stroke-width:1.5;" width="101" x="149.5" y="373"/><line style="stroke:#A80036;stroke-width:1.5;" x1="149.5" x2="250.5" y1="399.2969" y2="399.2969"/><text fill="#000000" font-family="sans-serif" font-size="14" lengthAdjust="spacingAndGlyphs" textLength="81" x="159.5" y="390.9951">WrongState</text></g><ellipse cx="570" cy="655" fill="none" filter="url(#f1e6llrkkhu6wf)" rx="10" ry="10" style="stroke:#000000;stroke-width:1.0;"/><ellipse cx="570.5" cy="655.5" fill="#000000" rx="6" ry="6" style="stroke:none;stroke-width:1.0;"/><path d="M6,362.5 L6,433.0313 A0,0 0 0 0 6,433.0313 L114,433.0313 A0,0 0 0 0 114,433.0313 L114,402 L149.36,398 L114,394 L114,372.5 L104,362.5 L6,362.5 A0,0 0 0 0 6,362.5 " fill="#FBFB77" filter="url(#f1e6llrkkhu6wf)" style="stroke:#A80036;stroke-width:1.0;"/><path d="M104,362.5 L104,372.5 L114,372.5 L104,362.5 " fill="#FBFB77" style="stroke:#A80036;stroke-width:1.0;"/><text fill="#000000" font-family="sans-serif" font-size="13" lengthAdjust="spacingAndGlyphs" textLength="62" x="12" y="379.5669">This state</text><text fill="#000000" font-family="sans-serif" font-size="13" lengthAdjust="spacingAndGlyphs" textLength="87" x="12" y="394.6997">is a dead-end</text><text fill="#000000" font-family="sans-serif" font-size="13" lengthAdjust="spacingAndGlyphs" textLength="86" x="12" y="409.8325">and shouldn't</text><text fill="#000000" font-family="sans-serif" font-size="13" lengthAdjust="spacingAndGlyphs" textLength="34" x="12" y="424.9653">exist.</text><rect fill="#FEFECE" filter="url(#f1e6llrkkhu6wf)" height="371.2656" rx="12.5" ry="12.5" style="stroke:#A80036;stroke-width:1.5;" width="215.64" x="286" y="212.5"/><rect fill="#FFFFFF" height="320" rx="12.5" ry="12.5" style="stroke:#FFFFFF;stroke-width:1.0;" width="209.64" x="289" y="260.7656"/><line style="stroke:#A80036;stroke-width:1.5;" x1="286" x2="501.64" y1="257.7656" y2="257.7656"/><line style="stroke:#A80036;stroke-width:1.5;" x1="286" x2="501.64" y1="238.7969" y2="238.7969"/><text fill="#000000" font-family="sans-serif" font-size="14" lengthAdjust="spacingAndGlyphs" textLength="111" x="338.32" y="230.4951">CompositeState</text><text fill="#000000" font-family="sans-serif" font-size="12" lengthAdjust="spacingAndGlyphs" textLength="113" x="291" y="249.9355">yet another string</text><ellipse cx="350.64" cy="278.7656" fill="#000000" filter="url(#f1e6llrkkhu6wf)" rx="10" ry="10" style="stroke:none;stroke-width:1.0;"/><g id="CompositeState.StateA"><rect fill="#FEFECE" filter="url(#f1e6llrkkhu6wf)" height="50" rx="12.5" ry="12.5" style="stroke:#A80036;stroke-width:1.5;" width="65" x="318.14" y="341.7656"/><line style="stroke:#A80036;stroke-width:1.5;" x1="318.14" x2="383.14" y1="368.0625" y2="368.0625"/><text fill="#000000" font-family="sans-serif" font-size="14" lengthAdjust="spacingAndGlyphs" textLength="45" x="328.14" y="359.7607">StateA</text></g><g id="CompositeState.StateB"><rect fill="#FEFECE" filter="url(#f1e6llrkkhu6wf)" height="50" rx="12.5" ry="12.5" style="stroke:#A80036;stroke-width:1.5;" width="66" x="317.64" y="444.7656"/><line style="stroke:#A80036;stroke-width:1.5;" x1="317.64" x2="383.64" y1="471.0625" y2="471.0625"/><text fill="#000000" font-family="sans-serif" font-size="14" lengthAdjust="spacingAndGlyphs" textLength="46" x="327.64" y="462.7607">StateB</text></g><ellipse cx="350.64" cy="557.7656" fill="none" filter="url(#f1e6llrkkhu6wf)" rx="10" ry="10" style="stroke:#000000;stroke-width:1.0;"/><ellipse cx="351.14" cy="558.2656" fill="#000000" rx="6" ry="6" style="stroke:none;stroke-width:1.0;"/><!--MD5=[366c61d77d935e273871301f1fef2928]
link *start*CompositeState to StateA--><path d="M350.64,288.9656 C350.64,300.2756 350.64,320.0156 350.64,336.6456 " fill="none" id="*start*CompositeState-to-StateA" style="stroke:#A80036;stroke-width:1.0;"/><polygon fill="#A80036" points="350.64,341.6956,354.64,332.6956,350.64,336.6956,346.64,332.6956,350.64,341.6956" style="stroke:#A80036;stroke-width:1.0;"/><text fill="#000000" font-family="sans-serif" font-size="13" lengthAdjust="spacingAndGlyphs" textLength="107" x="351.64" y="319.8325">begin something</text><!--MD5=[4da2dfd607d292dc415e916afa67ea92]
link StateA to StateB--><path d="M317.97,389.4956 C311.76,395.2856 306.11,402.1056 302.64,409.7656 C297,422.1856 303.73,434.1956 313.76,444.0956 " fill="none" id="StateA-to-StateB" style="stroke:#A80036;stroke-width:1.0;"/><polygon fill="#A80036" points="317.59,447.6456,313.7221,438.5881,313.9281,444.2412,308.275,444.4472,317.59,447.6456" style="stroke:#A80036;stroke-width:1.0;"/><text fill="#000000" font-family="sans-serif" font-size="13" lengthAdjust="spacingAndGlyphs" textLength="73" x="303.64" y="422.8325">from A to B</text><!--MD5=[2557285356c8987436c1238379ffca10]
link StateB to StateA--><path d="M369.43,444.5956 C372.81,439.0256 375.83,432.9156 377.64,426.7656 C380.64,416.5456 377.74,405.8356 372.89,396.3756 " fill="none" id="StateB-to-StateA" style="stroke:#A80036;stroke-width:1.0;"/><polygon fill="#A80036" points="370.37,391.8456,371.2442,401.6556,372.7982,396.2164,378.2374,397.7705,370.37,391.8456" style="stroke:#A80036;stroke-width:1.0;"/><text fill="#000000" font-family="sans-serif" font-size="13" lengthAdjust="spacingAndGlyphs" textLength="107" x="379.64" y="422.8325">from B back to A</text><!--MD5=[3e15d4920b5c80fb59f4905b04abeeaf]
link StateB to *end*CompositeState--><path d="M350.64,495.1756 C350.64,510.4756 350.64,529.6556 350.64,542.5056 " fill="none" id="StateB-to-*end*CompositeState" style="stroke:#A80036;stroke-width:1.0;"/><polygon fill="#A80036" points="350.64,547.6056,354.64,538.6056,350.64,542.6056,346.64,538.6056,350.64,547.6056" style="stroke:#A80036;stroke-width:1.0;"/><text fill="#000000" font-family="sans-serif" font-size="13" lengthAdjust="spacingAndGlyphs" textLength="36" x="351.64" y="525.8325">end it</text><rect fill="#FEFECE" filter="url(#f1e6llrkkhu6wf)" height="372.2969" rx="12.5" ry="12.5" style="stroke:#A80036;stroke-width:1.5;" width="186" x="655" y="212"/><rect fill="#FFFFFF" height="340" rx="12.5" ry="12.5" style="stroke:#FFFFFF;stroke-width:1.0;" width="180" x="658" y="241.2969"/><line style="stroke:#A80036;stroke-width:1.5;" x1="655" x2="841" y1="238.2969" y2="238.2969"/><text fill="#000000" font-family="sans-serif" font-size="14" lengthAdjust="spacingAndGlyphs" textLength="166" x="665" y="229.9951">AnotherCompositeState</text><ellipse cx="738.5" cy="259.2969" fill="#000000" filter="url(#f1e6llrkkhu6wf)" rx="10" ry="10" style="stroke:none;stroke-width:1.0;"/><g id="AnotherCompositeState.ConcurrentStateA"><rect fill="#FEFECE" filter="url(#f1e6llrkkhu6wf)" height="50" rx="12.5" ry="12.5" style="stroke:#A80036;stroke-width:1.5;" width="143" x="667" y="305.2969"/><line style="stroke:#A80036;stroke-width:1.5;" x1="667" x2="810" y1="331.5938" y2="331.5938"/><text fill="#000000" font-family="sans-serif" font-size="14" lengthAdjust="spacingAndGlyphs" textLength="123" x="677" y="323.292">ConcurrentStateA</text></g><!--MD5=[5bc961721a13f14ddda5153267540c8d]
link *start*AnotherCompositeState to ConcurrentStateA--><path d="M738.5,269.3169 C738.5,277.1769 738.5,289.0169 738.5,300.1069 " fill="none" id="*start*AnotherCompositeState-to-ConcurrentStateA" style="stroke:#A80036;stroke-width:1.0;"/><polygon fill="#A80036" points="738.5,305.1269,742.5,296.1269,738.5,300.1269,734.5,296.1269,738.5,305.1269" style="stroke:#A80036;stroke-width:1.0;"/><!--MD5=[b61898343f60f77c78e47760b1408227]
link ConcurrentStateA to ConcurrentStateA--><path d="M810.13,318.3869 C820.79,320.2469 828,324.2169 828,330.2969 C828,335.3369 823.05,338.9269 815.3,341.0569 " fill="none" id="ConcurrentStateA-to-ConcurrentStateA" style="stroke:#A80036;stroke-width:1.0;"/><polygon fill="#A80036" points="810.13,342.2069,819.7834,344.1592,815.0109,341.1222,818.048,336.3498,810.13,342.2069" style="stroke:#A80036;stroke-width:1.0;"/><line style="stroke:#A80036;stroke-width:1.5;stroke-dasharray:8.0,10.0;" x1="660" x2="831.7834" y1="368.2969" y2="368.2969"/><ellipse cx="739" cy="384.2969" fill="#000000" filter="url(#f1e6llrkkhu6wf)" rx="10" ry="10" style="stroke:none;stroke-width:1.0;"/><g id="AnotherCompositeState.CONC29.ConcurrentStateB"><rect fill="#FEFECE" filter="url(#f1e6llrkkhu6wf)" height="50" rx="12.5" ry="12.5" style="stroke:#A80036;stroke-width:1.5;" width="144" x="667" y="430.2969"/><line style="stroke:#A80036;stroke-width:1.5;" x1="667" x2="811" y1="456.5938" y2="456.5938"/><text fill="#000000" font-family="sans-serif" font-size="14" lengthAdjust="spacingAndGlyphs" textLength="124" x="677" y="448.292">ConcurrentStateB</text></g><g id="AnotherCompositeState.CONC29.ConcurrentStateC"><rect fill="#FEFECE" filter="url(#f1e6llrkkhu6wf)" height="50" rx="12.5" ry="12.5" style="stroke:#A80036;stroke-width:1.5;" width="144" x="667" y="516.2969"/><line style="stroke:#A80036;stroke-width:1.5;" x1="667" x2="811" y1="542.5938" y2="542.5938"/><text fill="#000000" font-family="sans-serif" font-size="14" lengthAdjust="spacingAndGlyphs" textLength="124" x="677" y="534.292">ConcurrentStateC</text></g><!--MD5=[0b9ed4d30a3f61d4ffe5c38ba9980475]
link *start*CONC29 to ConcurrentStateB--><path d="M739,394.3169 C739,402.1769 739,414.0169 739,425.1069 " fill="none" id="*start*CONC29-to-ConcurrentStateB" style="stroke:#A80036;stroke-width:1.0;"/><polygon fill="#A80036" points="739,430.1269,743,421.1269,739,425.1269,735,421.1269,739,430.1269" style="stroke:#A80036;stroke-width:1.0;"/><!--MD5=[9d2d0da59745a3c83f26aaaebfe8c2d0]
link ConcurrentStateB to ConcurrentStateC--><path d="M732.81,480.5969 C732.17,490.0869 732.08,501.0469 732.53,510.9769 " fill="none" id="ConcurrentStateB-to-ConcurrentStateC" style="stroke:#A80036;stroke-width:1.0;"/><polygon fill="#A80036" points="732.82,516.0569,736.3248,506.8527,732.5482,511.0643,728.3367,507.2876,732.82,516.0569" style="stroke:#A80036;stroke-width:1.0;"/><!--MD5=[7b38331476157d475ce57959bd41c82f]
link ConcurrentStateC to ConcurrentStateB--><path d="M745.18,516.0569 C745.83,506.5669 745.92,495.6069 745.47,485.6769 " fill="none" id="ConcurrentStateC-to-ConcurrentStateB" style="stroke:#A80036;stroke-width:1.0;"/><polygon fill="#A80036" points="745.19,480.5969,741.7115,489.811,745.4761,485.5887,749.6984,489.3533,745.19,480.5969" style="stroke:#A80036;stroke-width:1.0;"/><!--MD5=[a73ed115cb3c9d752e917e82534233b9]
link *start to MyState--><path d="M394,26.32 C394,38.78 394,61.6 394,81.35 " fill="none" id="*start-to-MyState" style="stroke:#A80036;stroke-width:1.0;"/><polygon fill="#A80036" points="394,86.56,398,77.56,394,81.56,390,77.56,394,86.56" style="stroke:#A80036;stroke-width:1.0;"/><!--MD5=[da8727e4fedaadaa88fe35ff4fcc17e3]
link MyState to CompositeState--><path d="M394,151.24 C394,166.3 394,185.73 394,207.05 " fill="none" id="MyState-to-CompositeState" style="stroke:#A80036;stroke-width:1.0;"/><polygon fill="#A80036" points="394,212.21,398,203.21,394,207.21,390,203.21,394,212.21" style="stroke:#A80036;stroke-width:1.0;"/><!--MD5=[8975204cb4f636cf42c1555656978748]
link MyState to AnotherCompositeState--><path d="M469.53,134.62 C521.49,147.76 589.59,171.44 638,212 C642.59,215.84 647.03,219.93 651.33,224.22 " fill="none" id="MyState-to-AnotherCompositeState" style="stroke:#A80036;stroke-width:1.0;"/><polygon fill="#A80036" points="654.91,227.86,651.449,218.6393,651.4032,224.296,645.7465,224.2502,654.91,227.86" style="stroke:#A80036;stroke-width:1.0;"/><!--MD5=[d4ea00f6e3dbd216fb5c9174f91d6f3a]
link MyState to WrongState--><path d="M337.23,151.17 C313.14,166.78 286.43,187.56 268,212 C231.82,259.98 213.28,329.19 205.2,367.93 " fill="none" id="MyState-to-WrongState" style="stroke:#A80036;stroke-width:1.0;"/><polygon fill="#A80036" points="204.18,372.95,209.8989,364.9316,205.1798,368.051,202.0604,363.3319,204.18,372.95" style="stroke:#A80036;stroke-width:1.0;"/><!--MD5=[667a7a01fcd3900c057a3becd8c3637b]
link CompositeState to CompositeState--><path d="M502.19,359.51 C522.6,364.18 537,377.01 537,398 C537,417.18 524.97,429.55 507.31,435.11 " fill="none" id="CompositeState-to-CompositeState" style="stroke:#A80036;stroke-width:1.0;"/><polygon fill="#A80036" points="502.19,436.49,511.9204,438.0127,507.0181,435.1901,509.8406,430.2878,502.19,436.49" style="stroke:#A80036;stroke-width:1.0;"/><text fill="#000000" font-family="sans-serif" font-size="13" lengthAdjust="spacingAndGlyphs" textLength="88" x="543" y="402.5669">\ this is a loop</text><!--MD5=[025dfbca5fce38f1175b7cb5f80828c1]
link AnotherCompositeState to *end--><path d="M654.82,560.94 C649.3,568.85 643.68,576.58 638,584 C620.26,607.16 595.62,630.83 581.39,643.85 " fill="none" id="AnotherCompositeState-to-*end" style="stroke:#A80036;stroke-width:1.0;"/><polygon fill="#A80036" points="577.33,647.54,586.6831,644.4547,581.0329,644.1802,581.3074,638.53,577.33,647.54" style="stroke:#A80036;stroke-width:1.0;"/><!--MD5=[32869a8d2f9ede59201a16cc716f824f]
link CompositeState to *end--><path d="M502.21,555.78 C527.11,591.86 549.73,624.63 561.49,641.67 " fill="none" id="CompositeState-to-*end" style="stroke:#A80036;stroke-width:1.0;"/><polygon fill="#A80036" points="564.52,646.05,562.7103,636.3688,561.6843,641.9319,556.1213,640.9059,564.52,646.05" style="stroke:#A80036;stroke-width:1.0;"/><!--MD5=[e6e8c378eea017f2083f156a62987fa0]
@startuml

[*] - -> MyState
MyState - -> CompositeState
MyState - -> AnotherCompositeState
MyState - -> WrongState

CompositeState - -> CompositeState : \ this is a loop
AnotherCompositeState - -> [*]
CompositeState - -> [*]

MyState : this is a string
MyState : this is another string

state CompositeState {

[*] - -> StateA : begin something
StateA - -> StateB : from A to B
StateB - -> StateA : from B back to A
StateB - -> [*] : end it

CompositeState : yet another string
}

state AnotherCompositeState {

[*] - -> ConcurrentStateA
ConcurrentStateA - -> ConcurrentStateA

- -

[*] - -> ConcurrentStateB
ConcurrentStateB - -> ConcurrentStateC
ConcurrentStateC - -> ConcurrentStateB
}

note left of WrongState
  This state
  is a dead-end
  and shouldn't
  exist.
end note

@enduml

PlantUML version 1.2020.26(Mon Dec 21 12:45:07 EST 2020)
(GPL source distribution)
Java Runtime: OpenJDK Runtime Environment
JVM: OpenJDK 64-Bit Server VM
Default Encoding: UTF-8
Language: en
Country: null
--></g></svg>