<?xml version="1.0" encoding="UTF-8" standalone="no"?><svg xmlns="http://www.w3.org/2000/svg" xmlns:xlink="http://www.w3.org/1999/xlink" contentScriptType="application/ecmascript" contentStyleType="text/css" height="508px" preserveAspectRatio="none" style="width:1071px;height:508px;" version="1.1" viewBox="0 0 1071 508" width="1071px" zoomAndPan="magnify"><defs><filter height="300%" id="foabf21l2so06" width="300%" x="-1" y="-1"><feGaussianBlur result="blurOut" stdDeviation="2.0"/><feColorMatrix in="blurOut" result="blurOut2" type="matrix" values="0 0 0 0 0 0 0 0 0 0 0 0 0 0 0 0 0 0 .4 0"/><feOffset dx="4.0" dy="4.0" in="blurOut2" result="blurOut3"/><feBlend in="SourceGraphic" in2="blurOut3" mode="normal"/></filter></defs><g><!--MD5=[f9ba5bf973e7832d2ce5ed59077b93f7]
entity DB--><ellipse cx="281.5" cy="33.7969" fill="#FEFECE" filter="url(#foabf21l2so06)" rx="8" ry="8" style="stroke: #A80036; stroke-width: 1.5;"/><path d="M281.5,41.7969 L281.5,68.7969 M268.5,49.7969 L294.5,49.7969 M281.5,68.7969 L268.5,83.7969 M281.5,68.7969 L294.5,83.7969 " fill="none" filter="url(#foabf21l2so06)" style="stroke: #A80036; stroke-width: 1.5;"/><text fill="#000000" font-family="sans-serif" font-size="14" lengthAdjust="spacingAndGlyphs" textLength="102" x="230.5" y="102.292">Main Database</text><text fill="#000000" font-family="sans-serif" font-size="14" font-style="italic" lengthAdjust="spacingAndGlyphs" textLength="94" x="234.5" y="20.9951">«Application»</text><path d="M6,21.5 L6,92.0313 A0,0 0 0 0 6,92.0313 L195,92.0313 A0,0 0 0 0 195,92.0313 L195,61 L230.28,57 L195,53 L195,31.5 L185,21.5 L6,21.5 A0,0 0 0 0 6,21.5 " fill="#FBFB77" filter="url(#foabf21l2so06)" style="stroke: #A80036; stroke-width: 1.0;"/><path d="M185,21.5 L185,31.5 L195,31.5 L185,21.5 " fill="#FBFB77" style="stroke: #A80036; stroke-width: 1.0;"/><text fill="#000000" font-family="sans-serif" font-size="13" lengthAdjust="spacingAndGlyphs" textLength="62" x="12" y="38.5669">This actor</text><text fill="#000000" font-family="sans-serif" font-size="13" lengthAdjust="spacingAndGlyphs" textLength="168" x="12" y="53.6997">has a "name with spaces",</text><text fill="#000000" font-family="sans-serif" font-size="13" lengthAdjust="spacingAndGlyphs" textLength="49" x="12" y="68.8325">an alias</text><text fill="#000000" font-family="sans-serif" font-size="13" lengthAdjust="spacingAndGlyphs" textLength="109" x="12" y="83.9653">and a stereotype</text><!--MD5=[fee662a292a0353a69bd162820bae93b]
entity User--><ellipse cx="421.5" cy="33.7969" fill="#FEFECE" filter="url(#foabf21l2so06)" rx="8" ry="8" style="stroke: #A80036; stroke-width: 1.5;"/><path d="M421.5,41.7969 L421.5,68.7969 M408.5,49.7969 L434.5,49.7969 M421.5,68.7969 L408.5,83.7969 M421.5,68.7969 L434.5,83.7969 " fill="none" filter="url(#foabf21l2so06)" style="stroke: #A80036; stroke-width: 1.5;"/><text fill="#000000" font-family="sans-serif" font-size="14" lengthAdjust="spacingAndGlyphs" textLength="32" x="405.5" y="102.292">User</text><text fill="#000000" font-family="sans-serif" font-size="14" font-style="italic" lengthAdjust="spacingAndGlyphs" textLength="68" x="387.5" y="20.9951">«Human»</text><!--MD5=[46bebd23bfb5f2d9a961720e7b2993d4]
entity SpecialisedUser--><ellipse cx="441.5" cy="284.5" fill="#FEFECE" filter="url(#foabf21l2so06)" rx="8" ry="8" style="stroke: #A80036; stroke-width: 1.5;"/><path d="M441.5,292.5 L441.5,319.5 M428.5,300.5 L454.5,300.5 M441.5,319.5 L428.5,334.5 M441.5,319.5 L454.5,334.5 " fill="none" filter="url(#foabf21l2so06)" style="stroke: #A80036; stroke-width: 1.5;"/><text fill="#000000" font-family="sans-serif" font-size="14" lengthAdjust="spacingAndGlyphs" textLength="110" x="386.5" y="352.9951">SpecialisedUser</text><!--MD5=[62529e7d5259bf274c3bf3e446350d88]
entity Administrator--><ellipse cx="577.5" cy="284.5" fill="#FEFECE" filter="url(#foabf21l2so06)" rx="8" ry="8" style="stroke: #A80036; stroke-width: 1.5;"/><path d="M577.5,292.5 L577.5,319.5 M564.5,300.5 L590.5,300.5 M577.5,319.5 L564.5,334.5 M577.5,319.5 L590.5,334.5 " fill="none" filter="url(#foabf21l2so06)" style="stroke: #A80036; stroke-width: 1.5;"/><text fill="#000000" font-family="sans-serif" font-size="14" lengthAdjust="spacingAndGlyphs" textLength="91" x="532" y="352.9951">Administrator</text><ellipse cx="281.4418" cy="190.7271" fill="#FEFECE" filter="url(#foabf21l2so06)" rx="86.9418" ry="23.7271" style="stroke: #A80036; stroke-width: 1.5;"/><text fill="#000000" font-family="sans-serif" font-size="14" font-style="italic" lengthAdjust="spacingAndGlyphs" textLength="50" x="256.4418" y="183.7375">«Main»</text><text fill="#000000" font-family="sans-serif" font-size="14" lengthAdjust="spacingAndGlyphs" textLength="132" x="215.4418" y="200.0343">Use the application</text><ellipse cx="366.6626" cy="457.5325" fill="#FEFECE" filter="url(#foabf21l2so06)" rx="98.1626" ry="22.0325" style="stroke: #A80036; stroke-width: 1.5;"/><text fill="#000000" font-family="sans-serif" font-size="14" lengthAdjust="spacingAndGlyphs" textLength="172" x="280.6626" y="462.181">Configure the application</text><path d="M475,170.5 L475,210.7656 L620,210.7656 L620,180.5 L610,170.5 L475,170.5 " fill="#FBFB77" filter="url(#foabf21l2so06)" style="stroke: #A80036; stroke-width: 1.0;"/><path d="M610,170.5 L610,180.5 L620,180.5 L610,170.5 " fill="#FBFB77" style="stroke: #A80036; stroke-width: 1.0;"/><text fill="#000000" font-family="sans-serif" font-size="13" lengthAdjust="spacingAndGlyphs" textLength="124" x="481" y="187.5669">This note applies to</text><text fill="#000000" font-family="sans-serif" font-size="13" lengthAdjust="spacingAndGlyphs" textLength="77" x="481" y="202.6997">both actors.</text><!--MD5=[548474300a3eaa928033ef51c8cd3f5e]
entity AnotherActor--><ellipse cx="744.5" cy="26" fill="#FEFECE" filter="url(#foabf21l2so06)" rx="8" ry="8" style="stroke: #A80036; stroke-width: 1.5;"/><path d="M744.5,34 L744.5,61 M731.5,42 L757.5,42 M744.5,61 L731.5,76 M744.5,61 L757.5,76 " fill="none" filter="url(#foabf21l2so06)" style="stroke: #A80036; stroke-width: 1.5;"/><text fill="#000000" font-family="sans-serif" font-size="14" lengthAdjust="spacingAndGlyphs" textLength="91" x="699" y="94.4951">AnotherActor</text><ellipse cx="744.2894" cy="315.2579" fill="#FEFECE" filter="url(#foabf21l2so06)" rx="74.2894" ry="17.2579" style="stroke: #A80036; stroke-width: 1.5;"/><text fill="#000000" font-family="sans-serif" font-size="14" lengthAdjust="spacingAndGlyphs" textLength="117" x="685.7894" y="319.9063">AnotherUseCase</text><!--MD5=[f6196bed92e4dc2cdcc5d1b35148bdca]
entity ThirdActor--><ellipse cx="871.5" cy="26" fill="#FEFECE" filter="url(#foabf21l2so06)" rx="8" ry="8" style="stroke: #A80036; stroke-width: 1.5;"/><path d="M871.5,34 L871.5,61 M858.5,42 L884.5,42 M871.5,61 L858.5,76 M871.5,61 L884.5,76 " fill="none" filter="url(#foabf21l2so06)" style="stroke: #A80036; stroke-width: 1.5;"/><text fill="#000000" font-family="sans-serif" font-size="14" lengthAdjust="spacingAndGlyphs" textLength="71" x="836" y="94.4951">ThirdActor</text><ellipse cx="871.7401" cy="457.5236" fill="#FEFECE" filter="url(#foabf21l2so06)" rx="56.7401" ry="14.5236" style="stroke: #A80036; stroke-width: 1.5;"/><text fill="#000000" font-family="sans-serif" font-size="14" lengthAdjust="spacingAndGlyphs" textLength="76" x="833.7401" y="462.1721">LowerCase</text><ellipse cx="1003.4472" cy="57.0236" fill="#FEFECE" filter="url(#foabf21l2so06)" rx="57.4472" ry="14.5236" style="stroke: #A80036; stroke-width: 1.5;"/><text fill="#000000" font-family="sans-serif" font-size="14" lengthAdjust="spacingAndGlyphs" textLength="77" x="964.9472" y="61.6721">UpperCase</text><!--MD5=[b0c4786cf31a980c8f8ffc2e3baac272]
entity FourthActor--><ellipse cx="1003.5" cy="426.5" fill="#FEFECE" filter="url(#foabf21l2so06)" rx="8" ry="8" style="stroke: #A80036; stroke-width: 1.5;"/><path d="M1003.5,434.5 L1003.5,461.5 M990.5,442.5 L1016.5,442.5 M1003.5,461.5 L990.5,476.5 M1003.5,461.5 L1016.5,476.5 " fill="none" filter="url(#foabf21l2so06)" style="stroke: #A80036; stroke-width: 1.5;"/><text fill="#000000" font-family="sans-serif" font-size="14" lengthAdjust="spacingAndGlyphs" textLength="81" x="963" y="494.9951">FourthActor</text><!--MD5=[3e5b9aee4da9cc224b352ea2b93b1c07]
reverse link User to SpecialisedUser--><path d="M426.82,126.27 C430.52,173.72 435.33,235.31 438.41,274.88 " fill="none" id="User&lt;-SpecialisedUser" style="stroke: #A80036; stroke-width: 1.0;"/><polygon fill="none" points="419.84,126.73,425.26,106.25,433.8,125.64,419.84,126.73" style="stroke: #A80036; stroke-width: 1.0;"/><!--MD5=[b4e501b81d36e0a0ad004b01a879159d]
reverse link User to Administrator--><path d="M475.1,68.37 C526.82,81.54 602.3,109.81 637.5,167 C658.58,201.26 636.32,244.22 613.17,274.93 " fill="none" id="User&lt;-Administrator" style="stroke: #A80036; stroke-width: 1.0;"/><polygon fill="none" points="473.47,75.18,455.58,63.83,476.65,61.55,473.47,75.18" style="stroke: #A80036; stroke-width: 1.0;"/><!--MD5=[810f978febb7e6693cadb942c602355a]
link Use to Config--><path d="M280.42,214.09 C279.62,246.52 280.93,307.7 298.5,356 C308.81,384.34 328.86,412.42 344.53,431.66 " fill="none" id="Use-&gt;Config" style="stroke: #A80036; stroke-width: 1.0; stroke-dasharray: 7.0,7.0;"/><polygon fill="#A80036" points="348,435.87,345.3528,426.3836,344.816,432.0149,339.1846,431.478,348,435.87" style="stroke: #A80036; stroke-width: 1.0;"/><text fill="#000000" font-family="sans-serif" font-size="13" lengthAdjust="spacingAndGlyphs" textLength="68" x="299.5" y="320.0669">«includes»</text><!--MD5=[9b1e83a301d632e8d5a1d64f176fc1f5]
link User to Use--><path d="M387.25,90.17 C363.07,112.88 331.11,142.9 308.68,163.97 " fill="none" id="User-&gt;Use" style="stroke: #A80036; stroke-width: 1.0;"/><polygon fill="#A80036" points="304.88,167.54,314.182,164.3039,308.5281,164.1208,308.7113,158.4669,304.88,167.54" style="stroke: #A80036; stroke-width: 1.0;"/><!--MD5=[d1c09d067967cb5ab3c78afd3bc5348b]
link DB to Use--><path d="M281.5,106.22 C281.5,124.79 281.5,145.38 281.5,161.43 " fill="none" id="DB-&gt;Use" style="stroke: #A80036; stroke-width: 1.0;"/><polygon fill="#A80036" points="281.5,166.7,285.5,157.7,281.5,161.7,277.5,157.7,281.5,166.7" style="stroke: #A80036; stroke-width: 1.0;"/><!--MD5=[bd42a5a8053b2f61442bb881258a9563]
link Administrator to Config--><path d="M531.98,346.71 C492.63,372.81 436.61,409.98 400.91,433.67 " fill="none" id="Administrator-&gt;Config" style="stroke: #A80036; stroke-width: 1.0;"/><polygon fill="#A80036" points="396.66,436.49,406.3712,434.849,400.8268,433.7264,401.9495,428.1821,396.66,436.49" style="stroke: #A80036; stroke-width: 1.0;"/><!--MD5=[056ca6c5a647cc018e8fe825a72cde8d]
link MyNote to Administrator--><path d="M552.19,210.72 C556.36,227.81 562.59,253.35 567.82,274.82 " fill="none" id="MyNote-Administrator" style="stroke: #A80036; stroke-width: 1.0; stroke-dasharray: 7.0,7.0;"/><!--MD5=[cb02e16fb00f8a2579b51fb7933b53f9]
link MyNote to SpecialisedUser--><path d="M530.94,210.72 C516.21,227.81 494.19,253.35 475.7,274.82 " fill="none" id="MyNote-SpecialisedUser" style="stroke: #A80036; stroke-width: 1.0; stroke-dasharray: 7.0,7.0;"/><!--MD5=[0841b8b798db7975cf01e6da1d65f0cd]
link AnotherActor to AnotherUseCase--><path d="M744.5,97.52 C744.5,152.23 744.5,249.21 744.5,292.53 " fill="none" id="AnotherActor-&gt;AnotherUseCase" style="stroke: #A80036; stroke-width: 1.0;"/><polygon fill="#A80036" points="744.5,297.79,748.5,288.79,744.5,292.79,740.5,288.79,744.5,297.79" style="stroke: #A80036; stroke-width: 1.0;"/><!--MD5=[fa94f3775f57f69cdf4afa5697af73ad]
link ThirdActor to LowerCase--><path d="M871.5,97.67 C871.5,181.94 871.5,376.14 871.5,437.53 " fill="none" id="ThirdActor-&gt;LowerCase" style="stroke: #A80036; stroke-width: 1.0;"/><polygon fill="#A80036" points="871.5,442.72,875.5,433.72,871.5,437.72,867.5,433.72,871.5,442.72" style="stroke: #A80036; stroke-width: 1.0;"/><!--MD5=[d66fd3f15cbb38b94a6e27352040a4db]
reverse link UpperCase to FourthActor--><path d="M1003.5,76.9 C1003.5,138.22 1003.5,332.55 1003.5,416.85 " fill="none" id="UpperCase&lt;-FourthActor" style="stroke: #A80036; stroke-width: 1.0;"/><polygon fill="#A80036" points="1003.5,71.72,999.5,80.72,1003.5,76.72,1007.5,80.72,1003.5,71.72" style="stroke: #A80036; stroke-width: 1.0;"/><!--MD5=[8ecad699235481368059710158a65770]
@startuml
actor "Main Database" as DB << Application >>

note left of DB
  This actor
  has a "name with spaces",
  an alias
  and a stereotype
end note

actor User << Human >>
actor SpecialisedUser
actor Administrator

User <|- - - SpecialisedUser
User <|- - - Administrator

usecase (Use the application) as (Use) << Main >>
usecase (Configure the application) as (Config)
Use ..> Config : <<includes>>

User - -> Use
DB - -> Use

Administrator - -> Config

note "This note applies to\nboth actors." as MyNote
MyNote .. Administrator
MyNote .. SpecialisedUser

AnotherActor - - -> (AnotherUseCase)

ThirdActor - - - -> (LowerCase)

(UpperCase) <- - - - FourthActor

@enduml

PlantUML version 1.2020.02(Sun Mar 01 05:22:07 EST 2020)
(GPL source distribution)
Java Runtime: OpenJDK Runtime Environment
JVM: OpenJDK 64-Bit Server VM
Java Version: 11.0.27+6-post-Ubuntu-0ubuntu122.04
Operating System: Linux
Default Encoding: UTF-8
Language: en
Country: null
--></g></svg>